<?xml version="1.0" encoding="UTF-8" standalone="no"?>
<!-- Created with Inkscape (http://www.inkscape.org/) -->

<svg
   xmlns:dc="http://purl.org/dc/elements/1.1/"
   xmlns:cc="http://creativecommons.org/ns#"
   xmlns:rdf="http://www.w3.org/1999/02/22-rdf-syntax-ns#"
   xmlns:svg="http://www.w3.org/2000/svg"
   xmlns="http://www.w3.org/2000/svg"
   xmlns:sodipodi="http://sodipodi.sourceforge.net/DTD/sodipodi-0.dtd"
   xmlns:inkscape="http://www.inkscape.org/namespaces/inkscape"
   width="1488.189"
   height="2104.7244"
   id="svg2"
   version="1.1"
   inkscape:version="0.48.1 "
   sodipodi:docname="raumzeitlabor_plakat2.pdf">
  <defs
     id="defs4" />
  <sodipodi:namedview
     id="base"
     pagecolor="#ffffff"
     bordercolor="#666666"
     borderopacity="1.0"
     inkscape:pageopacity="0.0"
     inkscape:pageshadow="2"
     inkscape:zoom="0.24183689"
     inkscape:cx="744.09448"
     inkscape:cy="1052.3622"
     inkscape:document-units="px"
     inkscape:current-layer="layer1"
     showgrid="false"
     units="mm"
     inkscape:window-width="1280"
     inkscape:window-height="698"
     inkscape:window-x="-8"
     inkscape:window-y="-8"
     inkscape:window-maximized="1"
     showguides="true"
     inkscape:guide-bbox="true" />
  <metadata
     id="metadata7">
    <rdf:RDF>
      <cc:Work
         rdf:about="">
        <dc:format>image/svg+xml</dc:format>
        <dc:type
           rdf:resource="http://purl.org/dc/dcmitype/StillImage" />
        <dc:title></dc:title>
      </cc:Work>
    </rdf:RDF>
  </metadata>
  <g
     inkscape:label="Ebene 1"
     inkscape:groupmode="layer"
     id="layer1"
     transform="translate(0,1052.3624)">
    <text
       xml:space="preserve"
       style="font-size:106.77536774px;font-style:normal;font-variant:normal;font-weight:300;font-stretch:normal;text-align:center;line-height:75%;letter-spacing:0px;word-spacing:0px;writing-mode:lr-tb;text-anchor:middle;fill:#000000;fill-opacity:1;stroke:none;font-family:Miso;-inkscape-font-specification:Miso Light"
       x="742.03522"
       y="-905.21863"
       id="text2993-1"
       sodipodi:linespacing="75%"><tspan
         sodipodi:role="line"
         x="742.03528"
         y="-905.21863"
         id="tspan2997-4">Digitalkultur im Rhein-Neckar-Dreieck</tspan></text>
    <text
       xml:space="preserve"
       style="font-size:106.77536774px;font-style:normal;font-variant:normal;font-weight:300;font-stretch:normal;text-align:center;line-height:75%;letter-spacing:0px;word-spacing:0px;writing-mode:lr-tb;text-anchor:middle;fill:#000000;fill-opacity:1;stroke:none;font-family:Miso;-inkscape-font-specification:Miso Light"
       x="743.81714"
       y="966.30377"
       id="text2993-1-8"
       sodipodi:linespacing="75%"><tspan
         sodipodi:role="line"
         x="743.81714"
         y="966.30377"
         id="tspan2997-4-7">www.raumzeitlabor.de</tspan></text>
    <text
       xml:space="preserve"
       style="font-size:800px;font-style:normal;font-variant:normal;font-weight:300;font-stretch:normal;line-height:125%;letter-spacing:0px;word-spacing:0px;fill:#000000;fill-opacity:1;stroke:none;font-family:Miso;-inkscape-font-specification:Miso Light;text-anchor:start;text-align:start;writing-mode:lr"
       x="18.171278"
       y="-322.26007"
       id="text3048"
       sodipodi:linespacing="125%"><tspan
         sodipodi:role="line"
         id="tspan3050"
         x="18.171278"
         y="-322.26007">Raum</tspan></text>
    <text
       xml:space="preserve"
       style="font-size:800px;font-style:normal;font-variant:normal;font-weight:300;font-stretch:normal;text-align:start;line-height:125%;letter-spacing:0px;word-spacing:0px;writing-mode:lr-tb;text-anchor:start;fill:#000000;fill-opacity:1;stroke:none;font-family:Miso;-inkscape-font-specification:Miso Light"
       x="40.570992"
       y="260.08762"
       id="text3052"
       sodipodi:linespacing="125%"><tspan
         sodipodi:role="line"
         id="tspan3054"
         x="40.570992"
         y="260.08762">Z</tspan></text>
    <text
       xml:space="preserve"
       style="font-size:800px;font-style:normal;font-variant:normal;font-weight:300;font-stretch:normal;text-align:start;line-height:125%;letter-spacing:0px;word-spacing:0px;writing-mode:lr-tb;text-anchor:start;fill:#000000;fill-opacity:1;stroke:none;font-family:Miso;-inkscape-font-specification:Miso Light"
       x="18.283787"
       y="842.31024"
       id="text3056"
       sodipodi:linespacing="125%"><tspan
         sodipodi:role="line"
         id="tspan3058"
         x="18.283787"
         y="842.31024"
         style="font-size:800px;font-style:normal;font-variant:normal;font-weight:300;font-stretch:normal;text-align:start;line-height:125%;writing-mode:lr-tb;text-anchor:start;font-family:Miso;-inkscape-font-specification:Miso Light">Labor</tspan></text>
    <g
       transform="matrix(3.068232,-1.2299266,1.2299266,3.068232,1151.1944,-344.83439)"
       id="g3016">
      <g
         id="g3044"
         transform="matrix(1.6674477,-0.26539102,0.26539102,1.6674477,-172.3695,79.959325)">
        <path
           inkscape:connector-curvature="0"
           id="Kabel-8"
           d="m 118.331,111.925 c -0.49,0 -0.986,-0.046 -1.49,-0.14 -3.387,-0.63 -6.553,-3.966 -8.469,-8.925 -2.108,-5.46 1.113,-12.314 2.326,-14.896 0.883,-1.879 1.947,-3.602 3.073,-5.425 0.706,-1.142 1.435,-2.323 2.161,-3.607 0.396,-0.701 0.802,-1.362 1.194,-2.002 0.526,-0.857 1.032,-1.68 1.474,-2.533 -1.482,-1.431 -2.995,-2.602 -6.227,-3.292 -0.018,0.036 -0.037,0.072 -0.055,0.108 -0.345,0.681 -0.702,1.385 -1.05,2.106 -1.188,2.459 -2.746,5.313 -6.202,8.078 -1.508,1.207 -4.302,2.237 -6.724,1.868 -1.538,-0.234 -2.779,-0.991 -3.589,-2.189 -1.069,-1.581 -2.167,-4.872 2.491,-9.15 l 0.064,-0.059 c 2.869,-2.657 4.799,-3.468 6.685,-4.125 2.341,-0.816 3.943,-1.053 6.189,-0.84 1.01,-2.158 1.849,-4.392 2.364,-7.436 0.729,-4.3 0.96,-10.311 -2.07,-14.522 -2.174,-3.021 -6.877,-4.552 -10.207,-4.457 -4.799,0.135 -7.726,0.989 -12.104,2.37 -1.552,0.49 -2.822,0.98 -3.965,1.67 0.16,0.282 0.298,0.56 0.413,0.833 1.92,4.573 2.401,10.56 2.212,14.64 -0.152,3.286 -1.197,6.286 -2.09,8.533 -1.52,3.822 -3.928,5.761 -7.159,5.761 -1.745,0 -4.134,-1.243 -5.325,-3.619 -1.353,-2.694 -1.127,-8.305 -1.125,-8.361 0.134,-3.123 0.584,-5.307 1.721,-8.347 1.393,-3.724 1.896,-4.479 4.334,-7.869 0.587,-0.816 1.167,-1.529 1.752,-2.157 -1.665,-1.713 -3.842,-3.385 -5.243,-4.09 -4.036,-2.03 -11.797,-1.865 -15.1,1.22 -0.807,0.754 -1.51,1.671 -2.253,2.642 -0.422,0.551 -0.858,1.121 -1.326,1.674 -0.296,0.351 -0.597,0.698 -0.897,1.046 -1.005,1.163 -1.955,2.261 -2.746,3.46 -1.5,2.271 -3.082,4.52 -4.612,6.694 l -0.746,1.061 c -0.326,0.464 -0.647,0.931 -0.969,1.397 -1.356,1.97 -2.759,4.006 -4.481,5.824 -1.347,1.422 -3.185,2.462 -5.313,3.009 -3.833,0.984 -7.906,0.398 -11.025,-0.223 -1.553,-0.31 -3.202,-0.712 -5.188,-1.266 l 1.028,-3.683 c 1.89,0.526 3.449,0.907 4.906,1.197 2.891,0.575 6.259,1.059 9.328,0.271 1.431,-0.368 2.637,-1.037 3.489,-1.936 1.518,-1.603 2.776,-3.429 4.108,-5.363 0.329,-0.477 0.657,-0.953 0.989,-1.426 l 0.747,-1.063 c 1.514,-2.152 3.08,-4.377 4.548,-6.601 0.927,-1.405 2.003,-2.65 3.044,-3.854 0.291,-0.337 0.583,-0.674 0.87,-1.014 0.409,-0.483 0.798,-0.992 1.211,-1.531 0.806,-1.052 1.639,-2.139 2.679,-3.11 4.55,-4.25 14.18,-4.481 19.427,-1.842 1.77,0.89 4.394,2.869 6.448,5.042 1.526,-0.979 3.19,-1.644 5.158,-2.265 4.71,-1.486 7.946,-2.399 13.146,-2.545 4.418,-0.127 10.444,1.913 13.418,6.046 3.802,5.283 3.587,12.375 2.736,17.394 -0.512,3.026 -1.312,5.355 -2.239,7.469 2.749,0.704 4.585,1.782 6.282,3.251 0.985,-1.788 2.085,-3.447 3.158,-5.068 0.947,-1.43 1.927,-2.908 2.796,-4.432 0.737,-1.294 1.499,-2.589 2.292,-3.927 -2.146,-2.344 -4.099,-5.064 -5.39,-8.098 -3.313,-7.784 -4.515,-16.314 -3.386,-24.021 0.602,-4.105 1.367,-8.384 2.892,-11.868 2.564,-5.861 5.097,-9.066 7.74,-9.797 4.457,-1.232 8.668,0.266 11.856,4.219 3.414,4.233 2.805,12.874 1.893,19.93 -0.402,3.116 -2.355,12.745 -3.73,15.888 -1.901,4.347 -4.498,8.809 -7.077,13.157 2.285,2.165 4.976,4.212 7.935,6 3.289,1.986 12.246,1.907 17.218,0.975 4.43,-0.83 13.221,-3.524 16.396,-4.776 0.546,-0.215 1.07,-0.429 1.583,-0.639 3.056,-1.247 5.941,-2.424 10.571,-2.721 6.711,-0.43 9.477,1.867 11.915,3.894 0.166,0.138 0.333,0.276 0.501,0.414 1.938,1.589 7.32,4.202 9.587,3.604 2.177,-0.575 4.373,-2.442 6.499,-4.248 3.373,-2.867 6.86,-5.833 11.064,-4.443 l -1.198,3.631 c -2.021,-0.667 -4.139,0.963 -7.391,3.726 -2.449,2.083 -4.982,4.235 -7.997,5.032 -4.424,1.169 -11.407,-3.047 -12.988,-4.345 -0.175,-0.144 -0.349,-0.287 -0.521,-0.43 -2.254,-1.873 -4.033,-3.351 -9.228,-3.02 -4.007,0.257 -6.374,1.223 -9.37,2.445 -0.526,0.216 -1.065,0.436 -1.626,0.656 -3.383,1.334 -12.387,4.095 -17.093,4.978 -4.181,0.783 -14.995,1.503 -19.9,-1.461 -1.799,-1.087 -4.869,-3.109 -7.955,-5.905 -0.609,1.032 -1.198,2.041 -1.771,3.044 -0.932,1.635 -1.947,3.168 -2.929,4.65 -1.274,1.923 -2.491,3.759 -3.502,5.752 1.198,1.29 2.311,2.675 3.125,4.184 1.57,2.909 2.149,4.083 2.857,7.371 1.192,5.539 0.533,13.428 -1.566,18.759 -2.009,5.103 -5.41,7.989 -9.286,7.989 l 0,0 z m 3.03,-34.617 c -0.321,0.557 -0.651,1.094 -0.977,1.624 -0.375,0.61 -0.763,1.241 -1.123,1.88 -0.763,1.351 -1.512,2.564 -2.237,3.738 -1.067,1.729 -2.076,3.359 -2.866,5.042 -1.022,2.176 -3.739,7.956 -2.219,11.891 1.37,3.546 3.62,6.175 5.601,6.543 3.769,0.699 5.943,-4.026 6.521,-5.491 1.825,-4.632 2.421,-11.748 1.387,-16.553 -0.604,-2.808 -1.014,-3.636 -2.483,-6.359 -0.434,-0.803 -0.99,-1.577 -1.604,-2.315 l 0,0 z m -13.049,-6.642 c -0.962,0.05 -1.854,0.267 -3.061,0.688 -1.601,0.558 -3.01,1.156 -5.345,3.319 l -0.076,0.069 c -1.335,1.227 -2.75,2.949 -1.91,4.193 0.129,0.19 0.373,0.455 0.996,0.55 1.216,0.187 2.926,-0.406 3.76,-1.074 2.832,-2.266 4.096,-4.58 5.148,-6.756 0.164,-0.335 0.326,-0.665 0.488,-0.989 l 0,0 z M 81.209,47.14 c -0.305,0.362 -0.612,0.757 -0.923,1.19 -2.253,3.132 -2.599,3.613 -3.857,6.976 -1.004,2.686 -1.364,4.429 -1.482,7.172 -0.082,1.897 0.128,5.298 0.722,6.482 0.524,1.045 1.59,1.51 1.907,1.51 1.059,0 2.425,-0.381 3.605,-3.351 0.783,-1.969 1.697,-4.579 1.823,-7.298 0.159,-3.408 -0.222,-8.72 -1.795,-12.681 l 0,0 z M 133.513,7.009 c -0.655,0 -1.332,0.097 -2.033,0.291 -0.362,0.1 -2.322,0.94 -5.255,7.644 -1.344,3.07 -2.05,7.048 -2.611,10.89 -1.028,7.021 0.079,14.824 3.12,21.97 0.858,2.017 2.202,4.094 3.93,6.125 2.335,-3.951 4.634,-7.972 6.313,-11.811 1.116,-2.552 3.041,-11.751 3.441,-14.846 1.161,-8.98 0.799,-14.713 -1.077,-17.039 -1.74,-2.157 -3.661,-3.224 -5.828,-3.224 l 0,0 z" />
        <polygon
           id="Stecker-1"
           points="7.575,67.136 7.984,66.122 19.138,66.9 19.029,67.169 20.1,67.603 22.244,62.295 21.173,61.862 21.066,62.126 21.06,62.142 12.5,54.945 12.91,53.932 8.622,52.199 7.779,54.285 4.559,52.984 4.06,54.22 7.28,55.521 4.808,61.638 1.588,60.337 1.089,61.572 4.309,62.874 3.287,65.403 " />
      </g>
    </g>
    <text
       xml:space="preserve"
       style="font-size:800px;font-style:normal;font-variant:normal;font-weight:300;font-stretch:normal;text-align:start;line-height:125%;letter-spacing:0px;word-spacing:0px;writing-mode:lr-tb;text-anchor:start;fill:#000000;fill-opacity:1;stroke:none;font-family:Miso;-inkscape-font-specification:Miso Light"
       x="328.29132"
       y="253.78772"
       id="text3052-1"
       sodipodi:linespacing="125%"><tspan
         sodipodi:role="line"
         id="tspan3054-7"
         x="328.29132"
         y="253.78772">eit</tspan></text>
  </g>
</svg>
