<?xml version="1.0" encoding="UTF-8" standalone="no"?>
<svg
   height="165.17"
   viewBox="0 0 150 132.13344"
   width="187.5"
   version="1.1"
   id="svg19"
   sodipodi:docname="rzl-logo.svg"
   inkscape:version="1.1.1 (c3084ef, 2021-09-22)"
   inkscape:export-filename="/Users/taba/Downloads/rzl-logo.png"
   inkscape:export-xdpi="153.44191"
   inkscape:export-ydpi="153.44191"
   xmlns:inkscape="http://www.inkscape.org/namespaces/inkscape"
   xmlns:sodipodi="http://sodipodi.sourceforge.net/DTD/sodipodi-0.dtd"
   xmlns="http://www.w3.org/2000/svg"
   xmlns:svg="http://www.w3.org/2000/svg">
  <defs
     id="defs23" />
  <sodipodi:namedview
     id="namedview21"
     pagecolor="#505050"
     bordercolor="#eeeeee"
     borderopacity="1"
     inkscape:pageshadow="0"
     inkscape:pageopacity="0"
     inkscape:pagecheckerboard="0"
     showgrid="false"
     inkscape:zoom="4.3176954"
     inkscape:cx="65.544225"
     inkscape:cy="75.387439"
     inkscape:window-width="1680"
     inkscape:window-height="1005"
     inkscape:window-x="0"
     inkscape:window-y="24"
     inkscape:window-maximized="0"
     inkscape:current-layer="svg19" />
  <path
     id="path1506"
     style="stroke-width:1.25"
     d="m 125.61914,0.00195313 c -2.2762,0.00954895 -4.44012,0.0673538 -6.69336,0.74023437 -6.3375,3.075 -9.28867,10.1007815 -11.88867,16.2382815 -7.250004,20.775 -5.59883,45.46289 7.76367,63.46289 -2.2125,5.6 -6.48867,10.036329 -9.88867,14.923829 -1.9,-0.762502 -3.8,-1.537503 -5.687501,-2.3125 C 103.54961,85.017187 103.95,75.480469 102.75,66.605469 c -1.9875,-11.2625 -12.424609,-20.475 -24.037109,-20 -9.65,-0.8 -19.187891,1.849215 -27.212891,7.199219 C 43.925,45.467187 31.313281,43.280859 20.988281,47.255859 10.875781,50.880859 5.9375,61.317969 0,69.480469 v 16.71289 c 6.1125,-8.4125 11.261719,-17.550781 18.011719,-25.488281 6.175,-7.5875 18.68789,-8.1125 25.71289,-1.375 1.575,0.5875 0.725,2.412107 0,3.28711 -7.5875,10.174998 -11.286328,23.90039 -7.548828,36.27539 1.8125,4.537502 5.975,9.137502 11.3125,8.500002 5.5,0.375 10.148828,-3.775 11.986328,-8.687502 4.75,-12.05 3.326172,-25.85 -1.923828,-37.5 7.3625,-4.725 16.461328,-6.725 25.048828,-4.8125 5.2125,1.4375 9.513672,5.862107 10.638672,11.16211 1.7875,7.887499 0.286719,16.301562 -3.175781,23.539062 -4.5875,-0.325 -9.225,-0.9375 -13.8125,-0.3125 -5.675,0.95 -11.374609,4.686716 -12.849609,10.51172 -1.475,9.15 9.3625,16.89961 17.75,13.53711 6.45,-1.825 9.698828,-8.08711 13.798828,-12.78711 0.9125,0.0875 2.73789,0.275 3.65039,0.375 -7.425,10.4875 -18.51289,19.18789 -21.15039,32.40039 -1.225,7.125 -0.698438,14.94922 2.976562,21.32422 4.925,7.3125 14.748825,10.47539 23.173829,8.40039 6.6375,-2.3125 11.47539,-8.22422 13.83789,-14.69922 4.175,-11.9625 4.02461,-25.35156 -0.15039,-37.28906 -1.2625,-3.8875 -4.38789,-7.01211 -5.40039,-10.91211 3.5375,-4.712508 7.25,-9.312502 10.375,-14.312502 3.8125,2.9375 7.51367,6.1625 11.95117,8.125 7.3875,2.75 15.48789,1.874606 23.21289,1.59961 10.35,-1.400003 20.33672,-4.91211 30.07422,-8.59961 V 78.09375 c -14.2375,5.9125 -29.5625,11.661328 -45.25,9.736328 -6.3125,-0.675 -10.875,-5.4375 -15.625,-9.125 8.725,-15.65 13.675,-33.236719 15,-51.074219 0.4,-8.8125 -1.47578,-18.5128905 -8.17578,-24.7753902 -2.07422,-2.2359377 -4.90354,-2.8657929 -7.83008,-2.85351567 z M 125.1543,9.2539062 c 0.067,3.563e-4 0.13466,0.00137 0.20117,0.00391 0.26601,0.010156 0.52595,0.03999 0.77539,0.095703 0.24944,0.055713 0.4874,0.1384764 0.71094,0.2519532 0.22353,0.1134762 0.43278,0.2579589 0.62109,0.4414066 0.18831,0.183447 0.35625,0.40625 0.5,0.671875 0.31563,0.385156 0.60731,0.779422 0.87891,1.181641 0.27159,0.402218 0.52337,0.810852 0.7539,1.228515 0.23053,0.417664 0.44039,0.8439 0.63282,1.275391 0.19242,0.431491 0.36616,0.868799 0.52343,1.3125 0.31455,0.887402 0.56219,1.798071 0.75391,2.724609 0.19172,0.926538 0.32734,1.869532 0.41992,2.822266 0.0926,0.952734 0.14304,1.914868 0.16016,2.880859 0.0171,0.965991 0.001,1.936035 -0.0332,2.902344 -0.0693,1.932617 -0.21914,3.852734 -0.35351,5.708984 -0.22188,1.667188 -0.47498,3.330201 -0.75977,4.988282 -0.28479,1.658081 -0.5999,3.311425 -0.94922,4.957031 -0.34931,1.645605 -0.73103,3.284302 -1.14648,4.914062 -0.41545,1.629761 -0.86445,3.250782 -1.34766,4.861328 -0.4832,1.610547 -1.00212,3.210865 -1.55468,4.798829 -0.55257,1.587963 -1.14014,3.162597 -1.76368,4.724609 -0.62353,1.562012 -1.28239,3.109888 -1.97851,4.642578 -0.69612,1.532691 -1.42891,3.050781 -2.19922,4.550781 -0.44922,-0.739062 -0.8784,-1.489737 -1.28906,-2.25 -0.41066,-0.760263 -0.80365,-1.531018 -1.17578,-2.310547 -0.37214,-0.779527 -0.72496,-1.568374 -1.0586,-2.365234 -0.33363,-0.79686 -0.64819,-1.601807 -0.94336,-2.414062 -0.29516,-0.812256 -0.56944,-1.631314 -0.82617,-2.457032 -0.25673,-0.825717 -0.49457,-1.656897 -0.71289,-2.49414 -0.21832,-0.837244 -0.41771,-1.680509 -0.59766,-2.527344 -0.17994,-0.846835 -0.34082,-1.698242 -0.48242,-2.552734 -0.1416,-0.854493 -0.26391,-1.712052 -0.36718,-2.572266 -0.10332,-0.860214 -0.18696,-1.721936 -0.25196,-2.585938 -0.065,-0.864001 -0.11192,-1.729849 -0.13867,-2.595703 -0.0268,-0.865854 -0.0349,-1.731884 -0.0234,-2.597656 0.0115,-0.865771 0.0421,-1.731949 0.0918,-2.595703 0.0497,-0.863754 0.1192,-1.726135 0.20703,-2.585938 0.0878,-0.859802 0.19435,-1.716397 0.32031,-2.570312 0.12596,-0.853915 0.27149,-1.704687 0.43555,-2.550781 0.15469,-0.959375 0.32625,-1.925073 0.51758,-2.890625 0.19133,-0.965552 0.40224,-1.931153 0.63867,-2.892578 0.23643,-0.961426 0.49714,-1.918238 0.78711,-2.865235 0.28997,-0.946997 0.60898,-1.884375 0.96094,-2.80664 0.35195,-0.922266 0.73777,-1.829566 1.16015,-2.716797 0.42239,-0.887232 0.88155,-1.753809 1.38282,-2.595703 0.50127,-0.841895 1.04421,-1.659058 1.63281,-2.445313 0.5886,-0.786255 1.22383,-1.541406 1.9082,-2.261719 0.47813,-0.1 1.00645,-0.2199219 1.54883,-0.3085938 0.40678,-0.066504 0.82216,-0.1168396 1.22851,-0.1289062 0.0677,-0.00201 0.13415,-0.00231 0.20118,-0.00195 z M 50.375,69.130859 c 0.435938,1.021875 0.82019,2.063819 1.152344,3.121094 0.332153,1.057276 0.612011,2.129883 0.839844,3.212891 0.227832,1.083008 0.40437,2.176318 0.527343,3.27539 0.122974,1.099073 0.19336,2.203125 0.210938,3.308594 0.01758,1.105469 -0.01907,2.212256 -0.107422,3.314453 -0.08835,1.102198 -0.229004,2.199805 -0.423828,3.289063 -0.194824,1.089258 -0.44231,2.169677 -0.744141,3.236328 -0.301831,1.06665 -0.658984,2.119922 -1.068359,3.154297 -0.1375,0.421875 -0.343555,0.794336 -0.59375,1.134765 -0.250196,0.34043 -0.544141,0.648438 -0.857422,0.941407 -0.626563,0.585937 -1.328906,1.110937 -1.910156,1.710937 -0.282032,-0.264062 -0.540873,-0.536322 -0.777344,-0.818359 -0.236472,-0.282038 -0.450012,-0.572827 -0.644531,-0.871094 -0.389038,-0.596533 -0.698536,-1.224023 -0.941407,-1.875 -0.242871,-0.650977 -0.41936,-1.326123 -0.544921,-2.017578 -0.125562,-0.691455 -0.201172,-1.399219 -0.238282,-2.117188 -0.03711,-0.717968 -0.03616,-1.445263 -0.01367,-2.175781 0.02249,-0.730517 0.06787,-1.464258 0.121094,-2.193359 0.106445,-1.458203 0.244531,-2.900781 0.300781,-4.269531 0.346875,-1.165626 0.715821,-2.32461 1.113282,-3.472657 0.397461,-1.148047 0.824218,-2.283984 1.289062,-3.404297 0.464844,-1.120312 0.966602,-2.224218 1.515625,-3.30664 0.549024,-1.082422 1.144922,-2.14336 1.794922,-3.177735 z m 31.810547,30.460938 c 0.485083,0.0032 2.152055,0.162344 2.64268,0.210782 -0.075,0.550001 -1.415336,1.540001 -1.490336,2.090001 -0.51875,0.44375 -1.024805,0.95273 -1.541016,1.45898 -0.516211,0.50625 -1.042969,1.01093 -1.601563,1.44532 -0.279296,0.21717 -0.566918,0.41582 -0.865234,0.58984 -0.298315,0.17402 -0.606738,0.32344 -0.929687,0.4375 -0.32295,0.11406 -0.660474,0.19316 -1.013672,0.23047 -0.353198,0.0373 -0.722266,0.0328 -1.111328,-0.0234 -0.275,0.0266 -0.53003,0.0139 -0.767579,-0.0293 -0.237548,-0.0432 -0.458789,-0.11718 -0.662109,-0.21875 -0.20332,-0.10156 -0.390185,-0.23027 -0.5625,-0.3789 -0.172314,-0.14864 -0.330078,-0.31758 -0.474609,-0.50196 -0.289063,-0.36875 -0.525391,-0.79843 -0.722656,-1.24218 -0.197266,-0.44375 -0.355079,-0.90196 -0.486329,-1.33008 0.840625,-0.4875 1.706836,-0.92168 2.59375,-1.29297 0.886914,-0.37129 1.794923,-0.67891 2.720703,-0.91406 0.925782,-0.235162 1.868946,-0.397464 2.826172,-0.476566 0.478614,-0.03955 0.96023,-0.05788 1.445313,-0.05469 z m 22.326173,10.814453 c 0.3375,0.0625 1.00117,0.19922 1.32617,0.26172 0.34063,0.54219 0.66038,1.09271 0.96094,1.65039 0.30056,0.55767 0.58136,1.12164 0.84375,1.69336 0.52478,1.14343 0.97588,2.31494 1.35937,3.50586 0.3835,1.19092 0.69964,2.40207 0.95703,3.6289 0.2574,1.22684 0.45508,2.46954 0.60157,3.72071 0.14648,1.25117 0.24221,2.51145 0.29297,3.77539 0.0507,1.26394 0.0571,2.52978 0.0273,3.79492 -0.0298,1.26514 -0.0963,2.52844 -0.19141,3.7832 -0.0951,1.25476 -0.21992,2.50157 -0.36523,3.73438 -0.12969,0.77812 -0.2833,1.57458 -0.4668,2.375 -0.18349,0.80041 -0.39609,1.60576 -0.64258,2.4043 -0.24648,0.79852 -0.52705,1.58884 -0.8457,2.36132 -0.31865,0.77249 -0.67617,1.52578 -1.07617,2.24805 -0.4,0.72227 -0.84151,1.41462 -1.33203,2.0625 -0.49053,0.64788 -1.02891,1.25146 -1.61914,1.80078 -0.29512,0.27466 -0.60402,0.53576 -0.92578,0.78125 -0.32177,0.24549 -0.6563,0.47616 -1.00586,0.68945 -0.34956,0.2133 -0.7133,0.40982 -1.0918,0.58789 -0.3785,0.17808 -0.77305,0.33672 -1.18164,0.47657 -0.682816,0.0937 -1.382911,0.12668 -2.089845,0.10156 -0.706934,-0.0251 -1.420703,-0.1085 -2.125,-0.24805 -0.704297,-0.13955 -1.399316,-0.33445 -2.074219,-0.58398 -0.674902,-0.24954 -1.328515,-0.55313 -1.947265,-0.9082 -0.61875,-0.35508 -1.202442,-0.76062 -1.738282,-1.2168 -0.535839,-0.45618 -1.025002,-0.96279 -1.451171,-1.51563 -0.213088,-0.27641 -0.409192,-0.56548 -0.589844,-0.86523 -0.180652,-0.29975 -0.345362,-0.60912 -0.490235,-0.93164 -0.144873,-0.32252 -0.271203,-0.65721 -0.376953,-1.00195 -0.105749,-0.34475 -0.190625,-0.7 -0.253906,-1.06641 -0.135937,-0.78594 -0.250977,-1.58203 -0.339844,-2.38281 -0.08887,-0.80078 -0.151172,-1.60625 -0.185547,-2.41407 -0.03437,-0.80781 -0.03926,-1.61679 -0.01172,-2.42382 0.02754,-0.80703 0.08672,-1.61172 0.183593,-2.41016 0.09687,-0.79844 0.230664,-1.59102 0.404297,-2.37305 0.173633,-0.78203 0.386719,-1.55468 0.644531,-2.3125 0.257813,-0.75781 0.560743,-1.50078 0.910157,-2.22656 0.349414,-0.72578 0.746875,-1.4332 1.195312,-2.11914 0.532813,-0.82813 1.0844,-1.64248 1.654297,-2.44336 0.569898,-0.80088 1.156736,-1.58984 1.75586,-2.36914 1.198242,-1.55859 2.446875,-3.07969 3.714843,-4.58594 1.267969,-1.50625 2.555272,-2.99687 3.830081,-4.49609 1.2748,-1.49922 2.53711,-3.00547 3.75586,-4.54297 z"
     transform="matrix(0.8,0,0,0.8,0,-0.00127927)"
     sodipodi:nodetypes="scccccccccccccccccccccccccccccccccccccccccscsssscsssssssscssssssscsssssssscsssssscssssssscsssccsssssscsscssssssscssscscsssssscssssscssssccsssssssscssssssssscssssssssscssssssscsssscsscs" />
</svg>
