<?xml version="1.0" encoding="UTF-8" standalone="no"?>
<!-- Created with Inkscape (http://www.inkscape.org/) -->

<svg
   xmlns:dc="http://purl.org/dc/elements/1.1/"
   xmlns:cc="http://creativecommons.org/ns#"
   xmlns:rdf="http://www.w3.org/1999/02/22-rdf-syntax-ns#"
   xmlns:svg="http://www.w3.org/2000/svg"
   xmlns="http://www.w3.org/2000/svg"
   xmlns:sodipodi="http://sodipodi.sourceforge.net/DTD/sodipodi-0.dtd"
   xmlns:inkscape="http://www.inkscape.org/namespaces/inkscape"
   width="308.2677"
   height="201.96851"
   id="svg4276"
   version="1.1"
   inkscape:version="0.48.1 "
   sodipodi:docname="vorderseite-slogan.svg"
   inkscape:export-filename="C:\Users\Inte\Documents\TeamDrive Spaces\RaumZeitLabor\Grafiken\Visitenkarten\vorderseite-slogan.png"
   inkscape:export-xdpi="356"
   inkscape:export-ydpi="356">
  <defs
     id="defs3" />
  <sodipodi:namedview
     inkscape:document-units="mm"
     id="base"
     pagecolor="#ffffff"
     bordercolor="#666666"
     borderopacity="1.0"
     inkscape:pageopacity="0.0"
     inkscape:pageshadow="2"
     inkscape:zoom="1.61"
     inkscape:cx="175.22759"
     inkscape:cy="98.553574"
     inkscape:current-layer="layer1"
     showgrid="false"
     units="mm"
     inkscape:window-width="1280"
     inkscape:window-height="698"
     inkscape:window-x="-8"
     inkscape:window-y="-8"
     inkscape:window-maximized="1" />
  <metadata
     id="metadata4">
    <rdf:RDF>
      <cc:Work
         rdf:about="">
        <dc:format>image/svg+xml</dc:format>
        <dc:type
           rdf:resource="http://purl.org/dc/dcmitype/StillImage" />
        <dc:title></dc:title>
      </cc:Work>
    </rdf:RDF>
  </metadata>
  <g
     inkscape:label="Layer 1"
     inkscape:groupmode="layer"
     id="layer1"
     transform="translate(0,-850.39368)">
    <rect
       style="fill:#000000;fill-opacity:1;stroke:none"
       id="rect4350"
       width="306.49606"
       height="200.19685"
       x="0.88581848"
       y="851.27948" />
    <g
       id="g4398"
       transform="translate(0,-12.472557)">
      <path
         d="m 185.25967,973.44981 0,-1.32911 c -0.0282,-1.13182 -0.41684,-2.07229 -1.16594,-2.82142 -0.74913,-0.7491 -1.68959,-1.13774 -2.82142,-1.16594 l -2.84811,0 c -0.32783,0.007 -0.5978,0.1172 -0.80993,0.32931 -0.21212,0.21214 -0.32189,0.48212 -0.32931,0.80993 l 0,13.67094 c 0.007,0.32783 0.1172,0.59781 0.32931,0.80994 0.21213,0.21212 0.4821,0.32189 0.80993,0.32931 0.32783,-0.007 0.59781,-0.11719 0.80994,-0.32931 0.21212,-0.21213 0.32189,-0.48211 0.3293,-0.80994 l 0,-5.50635 1.28166,0 2.20728,5.90983 c 0.13845,0.30064 0.34217,0.51227 0.61116,0.6349 0.26899,0.12262 0.55577,0.13251 0.86037,0.0297 0.30359,-0.11769 0.52115,-0.31547 0.6527,-0.59336 0.13151,-0.27789 0.13547,-0.57061 0.0121,-0.87817 l -2.06489,-5.55382 c 0.66011,-0.34167 1.1793,-0.8213 1.55756,-1.43889 0.37827,-0.61758 0.57111,-1.31675 0.57853,-2.09752 z m -5.69623,1.70887 0,-4.74685 1.70887,0 c 0.48655,0.0118 0.89003,0.17802 1.21046,0.49842 0.3204,0.32042 0.48654,0.7239 0.49841,1.21045 l 0,1.32911 c -0.0121,0.48657 -0.17801,0.89005 -0.49841,1.21045 -0.32043,0.32042 -0.72391,0.48656 -1.21046,0.49842 z"
         style="font-size:19.62386322px;font-style:normal;font-variant:normal;font-weight:bold;font-stretch:normal;line-height:125%;letter-spacing:0px;word-spacing:0px;fill:#ffffff;fill-opacity:1;stroke:none;font-family:Miso;-inkscape-font-specification:Miso Bold"
         id="path2991"
         inkscape:connector-curvature="0" />
      <path
         d="m 191.0276,977.03369 -1.30539,0 c -0.9741,0.0247 -1.78501,0.36096 -2.43276,1.00871 -0.64775,0.64775 -0.98398,1.45867 -1.0087,2.43276 0.0247,0.97409 0.36095,1.78502 1.0087,2.43276 0.64775,0.64775 1.45866,0.98398 2.43276,1.00871 l 2.37343,0 c 0.30409,-0.007 0.55626,-0.11126 0.75653,-0.31151 0.20025,-0.20026 0.30409,-0.45244 0.31151,-0.75653 l 0,-7.07282 c -0.006,-0.70905 -0.19532,-1.33801 -0.56665,-1.88687 -0.37135,-0.54885 -0.88658,-0.9642 -1.5457,-1.24605 -0.6428,-0.26898 -1.29154,-0.33623 -1.9462,-0.20174 -0.65468,0.1345 -1.23222,0.447 -1.73261,0.9375 -0.21756,0.21757 -0.32833,0.47074 -0.33228,0.7595 0.004,0.28877 0.11478,0.54194 0.33228,0.75949 0.20965,0.20967 0.45491,0.31251 0.73576,0.30855 0.15329,5e-4 0.29174,-0.0242 0.41536,-0.0742 0.1236,-0.0499 0.23832,-0.12806 0.34414,-0.23438 0.18344,-0.18987 0.39804,-0.30854 0.64379,-0.35601 0.24574,-0.0475 0.49001,-0.0237 0.7328,0.0712 0.24031,0.10038 0.43017,0.25564 0.56962,0.46578 0.13943,0.21016 0.21064,0.44256 0.21361,0.6972 z m -1.30539,2.13608 1.30539,0 0,2.61077 -1.30539,0 c -0.37629,-0.008 -0.68582,-0.13399 -0.9286,-0.37678 -0.24279,-0.24278 -0.36838,-0.55231 -0.37678,-0.9286 0.008,-0.37629 0.13399,-0.68582 0.37678,-0.9286 0.24278,-0.24278 0.55231,-0.36838 0.9286,-0.37679 z"
         style="font-size:19.62386322px;font-style:normal;font-variant:normal;font-weight:bold;font-stretch:normal;line-height:125%;letter-spacing:0px;word-spacing:0px;fill:#ffffff;fill-opacity:1;stroke:none;font-family:Miso;-inkscape-font-specification:Miso Bold"
         id="path2993"
         inkscape:connector-curvature="0" />
      <path
         d="m 198.8259,983.91663 2.37342,0 c 0.30409,-0.007 0.55627,-0.11126 0.75653,-0.31151 0.20025,-0.20026 0.30409,-0.45244 0.31151,-0.75653 l 0,-9.39878 c -0.007,-0.30408 -0.11127,-0.55626 -0.31151,-0.75653 -0.20026,-0.20024 -0.45244,-0.30408 -0.75653,-0.31151 -0.30409,0.007 -0.55627,0.11126 -0.75652,0.31151 -0.20027,0.20027 -0.3041,0.45245 -0.31152,0.75653 l 0,8.33073 -1.30538,0 c -0.37629,-0.008 -0.68582,-0.13399 -0.9286,-0.37678 -0.24279,-0.24278 -0.36838,-0.55231 -0.37679,-0.9286 l 0,-7.02535 c -0.007,-0.30408 -0.11127,-0.55626 -0.31151,-0.75653 -0.20027,-0.20024 -0.45244,-0.30408 -0.75653,-0.31151 -0.3041,0.007 -0.55627,0.11126 -0.75652,0.31151 -0.20027,0.20027 -0.3041,0.45245 -0.31152,0.75653 l 0,7.02535 c 0.0247,0.97409 0.36096,1.78502 1.00871,2.43276 0.64774,0.64775 1.45866,0.98398 2.43276,1.00871 z"
         style="font-size:19.62386322px;font-style:normal;font-variant:normal;font-weight:bold;font-stretch:normal;line-height:125%;letter-spacing:0px;word-spacing:0px;fill:#ffffff;fill-opacity:1;stroke:none;font-family:Miso;-inkscape-font-specification:Miso Bold"
         id="path2995"
         inkscape:connector-curvature="0" />
      <path
         d="m 207.02806,974.61279 2.61078,0 0,8.33073 c 0.007,0.3041 0.11127,0.55627 0.31151,0.75653 0.20024,0.20026 0.45243,0.3041 0.75653,0.31152 0.29369,-0.007 0.54291,-0.11126 0.74762,-0.31152 0.2047,-0.20026 0.31151,-0.45243 0.32042,-0.75653 l 0,-8.33073 1.30538,0 c 0.37628,0.008 0.68581,0.13401 0.9286,0.37679 0.24278,0.24279 0.36837,0.55232 0.37679,0.9286 l 0,7.02534 c 0.007,0.3041 0.11127,0.55627 0.31151,0.75653 0.20024,0.20026 0.45242,0.3041 0.75653,0.31152 0.29369,-0.007 0.54291,-0.11126 0.74762,-0.31152 0.20471,-0.20026 0.3115,-0.45243 0.32042,-0.75653 l 0,-7.02534 c -0.0263,-0.97409 -0.36542,-1.78501 -1.01761,-2.43276 -0.65221,-0.64774 -1.46016,-0.98398 -2.42386,-1.00871 l -7.12028,0 c -0.30409,0.007 -0.55627,0.11127 -0.75653,0.31151 -0.20026,0.20027 -0.30409,0.45245 -0.31152,0.75653 l 0,9.39877 c 0.007,0.3041 0.11127,0.55627 0.31152,0.75653 0.20026,0.20026 0.45244,0.3041 0.75653,0.31152 0.29371,-0.007 0.54291,-0.11126 0.74763,-0.31152 0.2047,-0.20026 0.31151,-0.45243 0.32041,-0.75653 z"
         style="font-size:19.62386322px;font-style:normal;font-variant:normal;font-weight:bold;font-stretch:normal;line-height:125%;letter-spacing:0px;word-spacing:0px;fill:#ffffff;fill-opacity:1;stroke:none;font-family:Miso;-inkscape-font-specification:Miso Bold"
         id="path2997"
         inkscape:connector-curvature="0" />
      <path
         d="m 218.20226,969.27258 c 0.007,0.32785 0.1172,0.59782 0.32932,0.80993 0.21213,0.21214 0.48211,0.32191 0.80993,0.32932 l 3.98735,0 c -0.26849,0.67149 -0.67494,1.64855 -1.21934,2.93118 -0.54441,1.28265 -1.11106,2.61572 -1.69997,3.99922 -0.66851,1.56647 -1.37263,3.2516 -2.11235,5.0554 -0.0351,0.0603 -0.0599,0.12956 -0.0741,0.20768 -0.0144,0.0781 -0.0213,0.15922 -0.0208,0.24328 0.004,0.21361 0.0673,0.42721 0.18988,0.64082 0.23339,0.33228 0.54985,0.49842 0.94937,0.49842 l 5.69622,0 c 0.32783,-0.007 0.59781,-0.11719 0.80994,-0.32931 0.21212,-0.21213 0.32189,-0.4821 0.32931,-0.80993 -0.007,-0.32783 -0.11719,-0.59781 -0.32931,-0.80994 -0.21213,-0.21212 -0.48211,-0.32189 -0.80994,-0.32931 l -3.98735,0 c 0.27788,-0.66159 0.68334,-1.63469 1.21638,-2.91932 0.53303,-1.28461 1.09276,-2.61372 1.6792,-3.98735 0.64082,-1.5625 1.35285,-3.25554 2.13608,-5.07914 0.0351,-0.0603 0.0599,-0.12953 0.0741,-0.20767 0.0143,-0.0781 0.0213,-0.1592 0.0208,-0.24328 -0.004,-0.21359 -0.0672,-0.4272 -0.18987,-0.64082 -0.23339,-0.33227 -0.54985,-0.49841 -0.94938,-0.49842 l -5.69622,0 c -0.32782,0.007 -0.5978,0.1172 -0.80993,0.32931 -0.21212,0.21214 -0.32189,0.48212 -0.32932,0.80993 z"
         style="font-size:19.62386322px;font-style:normal;font-variant:normal;font-weight:bold;font-stretch:normal;line-height:125%;letter-spacing:0px;word-spacing:0px;fill:#ffffff;fill-opacity:1;stroke:none;font-family:Miso;-inkscape-font-specification:Miso Bold"
         id="path2999"
         inkscape:connector-curvature="0" />
      <path
         d="m 229.92154,983.75049 c 0.66357,0.26899 1.32417,0.33623 1.98183,0.20174 0.65762,-0.1345 1.24703,-0.447 1.76819,-0.9375 0.20965,-0.21757 0.3125,-0.47073 0.30855,-0.7595 0.004,-0.28877 -0.0989,-0.54193 -0.30855,-0.7595 -0.21361,-0.21756 -0.47468,-0.32832 -0.78322,-0.33228 -0.28087,0.004 -0.52612,0.11472 -0.73577,0.33228 -0.19433,0.18988 -0.41684,0.30855 -0.66753,0.35602 -0.2507,0.0475 -0.50287,0.0237 -0.75652,-0.0712 -0.25169,-0.10977 -0.44849,-0.26997 -0.5904,-0.48061 -0.14191,-0.21064 -0.2141,-0.45392 -0.21658,-0.72983 l 0,-1.30539 3.67882,0 c 0.3041,-0.007 0.55627,-0.11125 0.75654,-0.31151 0.20024,-0.20025 0.30408,-0.45243 0.31151,-0.75653 l 0,-2.37343 c -0.0247,-0.97408 -0.36097,-1.785 -1.00872,-2.43276 -0.64774,-0.64774 -1.45867,-0.98397 -2.43276,-1.00871 -0.9741,0.0247 -1.78502,0.36097 -2.43276,1.00871 -0.64775,0.64776 -0.98398,1.45868 -1.0087,2.43276 l 0,4.74686 c 0.006,0.72142 0.1958,1.36126 0.56962,1.91951 0.37381,0.55825 0.89597,0.97854 1.56645,1.26088 z m 1.30539,-9.23263 c 0.37629,0.008 0.68582,0.13401 0.92861,0.37678 0.24278,0.24279 0.36837,0.55232 0.37678,0.9286 l 0,1.30539 -2.61078,0 0,-1.30539 c 0.008,-0.37628 0.134,-0.68581 0.37679,-0.9286 0.24278,-0.24278 0.55231,-0.36837 0.9286,-0.37678 z"
         style="font-size:19.62386322px;font-style:normal;font-variant:normal;font-weight:bold;font-stretch:normal;line-height:125%;letter-spacing:0px;word-spacing:0px;fill:#ffffff;fill-opacity:1;stroke:none;font-family:Miso;-inkscape-font-specification:Miso Bold"
         id="path3001"
         inkscape:connector-curvature="0" />
      <path
         d="m 237.85336,971.19506 c 0.37629,-0.008 0.68582,-0.13399 0.92861,-0.37678 0.24277,-0.24277 0.36837,-0.55231 0.37677,-0.92861 -0.008,-0.37627 -0.134,-0.6858 -0.37677,-0.9286 -0.24279,-0.24277 -0.55232,-0.36836 -0.92861,-0.37678 -0.37628,0.008 -0.68583,0.13401 -0.9286,0.37678 -0.24278,0.2428 -0.36839,0.55233 -0.37678,0.9286 0.008,0.3763 0.134,0.68584 0.37678,0.92861 0.24277,0.24279 0.55232,0.36838 0.9286,0.37678 z m 1.06805,11.74846 0,-9.49371 c -0.007,-0.30408 -0.11127,-0.55626 -0.31152,-0.75653 -0.20026,-0.20024 -0.45244,-0.30408 -0.75653,-0.31151 -0.30409,0.007 -0.55628,0.11126 -0.75653,0.31151 -0.20025,0.20027 -0.3041,0.45245 -0.31151,0.75653 l 0,9.49371 c 0.007,0.3041 0.11127,0.55627 0.31151,0.75653 0.20025,0.20026 0.45244,0.3041 0.75653,0.31152 0.30409,-0.007 0.55627,-0.11126 0.75653,-0.31152 0.20026,-0.20026 0.30409,-0.45243 0.31152,-0.75653 z"
         style="font-size:19.62386322px;font-style:normal;font-variant:normal;font-weight:bold;font-stretch:normal;line-height:125%;letter-spacing:0px;word-spacing:0px;fill:#ffffff;fill-opacity:1;stroke:none;font-family:Miso;-inkscape-font-specification:Miso Bold"
         id="path3003"
         inkscape:connector-curvature="0" />
      <path
         d="m 241.53743,974.61279 0.83069,0 0,5.95731 c 0.0247,0.97409 0.36096,1.78501 1.00872,2.43276 0.64774,0.64775 1.45866,0.98398 2.43276,1.00871 0.30409,-0.007 0.55626,-0.11126 0.75653,-0.31152 0.20025,-0.20026 0.30408,-0.45243 0.31151,-0.75653 -0.007,-0.30409 -0.11127,-0.55627 -0.31151,-0.75653 -0.20027,-0.20025 -0.45244,-0.30409 -0.75653,-0.31151 -0.37629,-0.008 -0.68583,-0.134 -0.92861,-0.37678 -0.24278,-0.24278 -0.36837,-0.55231 -0.37678,-0.9286 l 0,-5.95731 1.30539,0 c 0.30409,-0.007 0.55626,-0.11124 0.75653,-0.31151 0.20025,-0.20025 0.30408,-0.45242 0.31151,-0.75653 -0.007,-0.30408 -0.11127,-0.55626 -0.31151,-0.75653 -0.20027,-0.20025 -0.45244,-0.30408 -0.75653,-0.31151 l -1.30539,0 0,-3.77375 c -0.007,-0.30408 -0.11127,-0.55626 -0.31151,-0.75653 -0.20027,-0.20024 -0.45244,-0.30408 -0.75653,-0.31151 -0.3041,0.007 -0.55627,0.11127 -0.75654,0.31151 -0.20025,0.20027 -0.30408,0.45245 -0.31151,0.75653 l 0,3.77375 -0.83069,0 c -0.3041,0.007 -0.55627,0.11127 -0.75653,0.31151 -0.20026,0.20027 -0.3041,0.45245 -0.31151,0.75653 0.007,0.30411 0.11127,0.55628 0.31151,0.75653 0.20026,0.20027 0.45243,0.30411 0.75653,0.31151 z"
         style="font-size:19.62386322px;font-style:normal;font-variant:normal;font-weight:bold;font-stretch:normal;line-height:125%;letter-spacing:0px;word-spacing:0px;fill:#ffffff;fill-opacity:1;stroke:none;font-family:Miso;-inkscape-font-specification:Miso Bold"
         id="path3005"
         inkscape:connector-curvature="0" />
      <path
         d="m 249.62794,983.98783 4.74685,0 c 0.32783,-0.007 0.59779,-0.11719 0.80994,-0.32931 0.21211,-0.21213 0.32189,-0.4821 0.3293,-0.80993 -0.007,-0.32783 -0.1172,-0.59781 -0.3293,-0.80994 -0.21213,-0.21212 -0.48211,-0.32189 -0.80994,-0.32931 l -3.60761,0 0,-12.53169 c -0.007,-0.32782 -0.1172,-0.5978 -0.32931,-0.80994 -0.21213,-0.21211 -0.48211,-0.32188 -0.80993,-0.32931 -0.32783,0.007 -0.59781,0.1172 -0.80994,0.32931 -0.21212,0.21214 -0.32189,0.48212 -0.3293,0.80994 l 0,13.67094 c 0.007,0.32783 0.11719,0.5978 0.3293,0.80993 0.21213,0.21212 0.48211,0.32189 0.80994,0.32931 z"
         style="font-size:19.62386322px;font-style:normal;font-variant:normal;font-weight:bold;font-stretch:normal;line-height:125%;letter-spacing:0px;word-spacing:0px;fill:#ffffff;fill-opacity:1;stroke:none;font-family:Miso;-inkscape-font-specification:Miso Bold"
         id="path3007"
         inkscape:connector-curvature="0" />
      <path
         d="m 260.60885,977.03369 -1.30539,0 c -0.97409,0.0247 -1.78502,0.36096 -2.43276,1.00871 -0.64775,0.64775 -0.98398,1.45867 -1.0087,2.43276 0.0247,0.97409 0.36095,1.78502 1.0087,2.43276 0.64774,0.64775 1.45866,0.98398 2.43276,1.00871 l 2.37343,0 c 0.30409,-0.007 0.55627,-0.11126 0.75654,-0.31151 0.20025,-0.20026 0.30408,-0.45244 0.31151,-0.75653 l 0,-7.07282 c -0.006,-0.70905 -0.19532,-1.33801 -0.56667,-1.88687 -0.37134,-0.54885 -0.88658,-0.9642 -1.54568,-1.24605 -0.64281,-0.26898 -1.29155,-0.33623 -1.94622,-0.20174 -0.65467,0.1345 -1.2322,0.447 -1.73259,0.9375 -0.21758,0.21757 -0.32834,0.47074 -0.33228,0.7595 0.004,0.28877 0.11466,0.54194 0.33228,0.75949 0.20965,0.20967 0.45489,0.31251 0.73576,0.30855 0.15327,5e-4 0.29172,-0.0242 0.41534,-0.0742 0.12362,-0.0499 0.23833,-0.12806 0.34415,-0.23438 0.18345,-0.18987 0.39804,-0.30854 0.64379,-0.35601 0.24575,-0.0475 0.49002,-0.0237 0.7328,0.0712 0.24031,0.10038 0.43018,0.25564 0.56962,0.46578 0.13943,0.21016 0.21063,0.44256 0.21361,0.6972 z m -1.30539,2.13608 1.30539,0 0,2.61077 -1.30539,0 c -0.37629,-0.008 -0.68582,-0.13399 -0.9286,-0.37678 -0.24279,-0.24278 -0.36838,-0.55231 -0.37679,-0.9286 0.008,-0.37629 0.134,-0.68582 0.37679,-0.9286 0.24278,-0.24278 0.55231,-0.36838 0.9286,-0.37679 z"
         style="font-size:19.62386322px;font-style:normal;font-variant:normal;font-weight:bold;font-stretch:normal;line-height:125%;letter-spacing:0px;word-spacing:0px;fill:#ffffff;fill-opacity:1;stroke:none;font-family:Miso;-inkscape-font-specification:Miso Bold"
         id="path3009"
         inkscape:connector-curvature="0" />
      <path
         d="m 266.22359,983.91663 2.37344,0 c 0.97409,-0.0247 1.78501,-0.36096 2.43275,-1.00871 0.64775,-0.64775 0.98398,-1.45867 1.00872,-2.43276 l 0,-4.55698 c -0.0248,-0.97409 -0.36097,-1.78501 -1.00872,-2.43276 -0.64774,-0.64774 -1.45866,-0.98398 -2.43275,-1.00871 l -1.30538,0 0,-3.77375 c -0.007,-0.30408 -0.11128,-0.55626 -0.31152,-0.75653 -0.20026,-0.20024 -0.45244,-0.30408 -0.75654,-0.31151 -0.30409,0.007 -0.55627,0.11127 -0.75652,0.31151 -0.20026,0.20027 -0.3041,0.45245 -0.31151,0.75653 l 0,14.14563 c 0.007,0.30409 0.11127,0.55627 0.31151,0.75653 0.20025,0.20025 0.45243,0.30409 0.75652,0.31151 z m 1.06806,-9.30384 1.30538,0 c 0.37628,0.008 0.68581,0.13401 0.9286,0.37679 0.24278,0.24279 0.36837,0.55232 0.37678,0.9286 l 0,4.55698 c -0.008,0.37629 -0.134,0.68582 -0.37678,0.9286 -0.24279,0.24279 -0.55232,0.36838 -0.9286,0.37678 l -1.30538,0 z"
         style="font-size:19.62386322px;font-style:normal;font-variant:normal;font-weight:bold;font-stretch:normal;line-height:125%;letter-spacing:0px;word-spacing:0px;fill:#ffffff;fill-opacity:1;stroke:none;font-family:Miso;-inkscape-font-specification:Miso Bold"
         id="path3011"
         inkscape:connector-curvature="0" />
      <path
         d="m 277.53717,984.01157 c 0.9741,-0.0247 1.78502,-0.36096 2.43276,-1.00871 0.64775,-0.64775 0.98399,-1.45867 1.00872,-2.43276 l 0,-4.74686 c -0.0248,-0.97408 -0.36097,-1.785 -1.00872,-2.43276 -0.64774,-0.64774 -1.45866,-0.98397 -2.43276,-1.00871 -0.97409,0.0247 -1.78501,0.36097 -2.43276,1.00871 -0.64775,0.64775 -0.98398,1.45868 -1.0087,2.43276 l 0,4.74686 c 0.0247,0.97409 0.36095,1.78501 1.0087,2.43276 0.64775,0.64775 1.45867,0.98398 2.43276,1.00871 z m 0,-9.49371 c 0.37629,0.008 0.68582,0.13401 0.92861,0.37678 0.24278,0.24279 0.36837,0.55232 0.37678,0.9286 l 0,4.74686 c -0.008,0.37629 -0.134,0.68582 -0.37678,0.9286 -0.24279,0.24278 -0.55232,0.36838 -0.92861,0.37678 -0.37628,-0.008 -0.68582,-0.134 -0.9286,-0.37678 -0.24279,-0.24278 -0.36838,-0.55231 -0.37677,-0.9286 l 0,-4.74686 c 0.008,-0.37628 0.13399,-0.68581 0.37677,-0.9286 0.24278,-0.24278 0.55232,-0.36837 0.9286,-0.37678 z"
         style="font-size:19.62386322px;font-style:normal;font-variant:normal;font-weight:bold;font-stretch:normal;line-height:125%;letter-spacing:0px;word-spacing:0px;fill:#ffffff;fill-opacity:1;stroke:none;font-family:Miso;-inkscape-font-specification:Miso Bold"
         id="path3013"
         inkscape:connector-curvature="0" />
      <path
         d="m 284.39538,984.01157 c 0.3041,-0.007 0.55627,-0.11126 0.75654,-0.31152 0.20025,-0.20026 0.30409,-0.45243 0.31151,-0.75653 l 0,-8.33073 1.30539,0 c 0.21359,-0.004 0.42721,0.0514 0.64081,0.16614 0.28086,0.15033 0.55578,0.18791 0.82477,0.11274 0.26899,-0.0752 0.48458,-0.23931 0.64677,-0.49249 0.14189,-0.28084 0.17849,-0.55577 0.10982,-0.82476 -0.0687,-0.26898 -0.23983,-0.48457 -0.51326,-0.64676 -0.54589,-0.30458 -1.11552,-0.4549 -1.70886,-0.45095 l -2.37344,0 c -0.30409,0.007 -0.55628,0.11127 -0.75653,0.31151 -0.20025,0.20027 -0.3041,0.45244 -0.31151,0.75653 l 0,9.39877 c 0.007,0.3041 0.11127,0.55627 0.31151,0.75653 0.20027,0.20026 0.45244,0.3041 0.75653,0.31151 z"
         style="font-size:19.62386322px;font-style:normal;font-variant:normal;font-weight:bold;font-stretch:normal;line-height:125%;letter-spacing:0px;word-spacing:0px;fill:#ffffff;fill-opacity:1;stroke:none;font-family:Miso;-inkscape-font-specification:Miso Bold"
         id="path3015"
         inkscape:connector-curvature="0" />
      <path
         style="fill:#ffffff;stroke:none"
         d="m 159.51783,1017.1312 c -0.59264,0 -1.19254,-0.056 -1.80212,-0.1693 -4.09649,-0.762 -7.92569,-4.7968 -10.24304,-10.7946 -2.54958,-6.60375 1.34614,-14.89349 2.81323,-18.01635 1.06797,-2.27261 2.35485,-4.35653 3.71672,-6.56141 0.85389,-1.38122 1.7356,-2.80961 2.61368,-4.36258 0.47895,-0.84784 0.97,-1.6473 1.44411,-2.42137 0.63619,-1.03652 1.24818,-2.03191 1.78277,-3.0636 -1.79244,-1.73076 -3.62238,-3.14705 -7.5314,-3.98159 -0.0218,0.0435 -0.0447,0.0871 -0.0665,0.13062 -0.41726,0.82366 -0.84905,1.67513 -1.26994,2.54716 -1.43686,2.9741 -3.32122,6.42594 -7.50117,9.77014 -1.82389,1.45984 -5.20316,2.7056 -8.13251,2.2593 -1.86018,-0.28302 -3.36113,-1.19859 -4.34081,-2.64754 -1.29293,-1.91218 -2.62093,-5.89256 3.0128,-11.0667 l 0.0774,-0.0714 c 3.46999,-3.21357 5.80427,-4.19446 8.08534,-4.98908 2.83138,-0.98694 4.76896,-1.27358 7.48545,-1.01596 1.22157,-2.61005 2.23632,-5.31202 2.8592,-8.99366 0.8817,-5.20075 1.16109,-12.4709 -2.50362,-17.564 -2.6294,-3.65383 -8.31756,-5.50553 -12.34511,-5.39063 -5.80428,0.16328 -9.34441,1.19617 -14.63949,2.86645 -1.87711,0.59265 -3.41314,1.18529 -4.79557,2.01983 0.19351,0.34107 0.36042,0.6773 0.49951,1.00749 2.32219,5.53093 2.90395,12.77206 2.67536,17.70672 -0.18384,3.97433 -1.44774,7.60276 -2.5278,10.32045 -1.8384,4.62262 -4.75082,6.96779 -8.65864,6.96779 -2.11053,0 -4.99997,-1.50338 -6.44045,-4.37709 -1.63642,-3.25833 -1.36308,-10.0447 -1.36066,-10.11243 0.16207,-3.77719 0.70633,-6.41868 2.08151,-10.09549 1.68479,-4.50408 2.29316,-5.41724 5.24186,-9.51736 0.70996,-0.98693 1.41146,-1.84929 2.119,-2.60884 -2.01377,-2.07183 -4.6468,-4.09407 -6.34128,-4.94675 -4.88144,-2.45523 -14.268177,-2.25567 -18.263074,1.47556 -0.976047,0.91194 -1.826308,2.02103 -2.724948,3.19543 -0.510399,0.66642 -1.03773,1.35583 -1.603764,2.02467 -0.358005,0.42452 -0.722057,0.84421 -1.0849,1.26511 -1.215522,1.40662 -2.364524,2.73462 -3.321219,4.18478 -1.814213,2.74672 -3.727603,5.46683 -5.5781,8.09623 l -0.902268,1.28325 c -0.394289,0.5612 -0.782531,1.12602 -1.171982,1.68964 -1.640049,2.38267 -3.336942,4.84516 -5.419659,7.04398 -1.629163,1.71988 -3.852179,2.97773 -6.425942,3.63931 -4.635919,1.19013 -9.562112,0.48138 -13.334465,-0.26971 -1.878315,-0.37494 -3.87274,-0.86114 -6.274758,-1.53119 l 1.24334,-4.4545 c 2.285909,0.63618 4.171481,1.09699 5.933686,1.44774 3.496593,0.69545 7.570106,1.28083 11.281986,0.32777 1.730759,-0.44509 3.189386,-1.25423 4.219859,-2.34155 1.835984,-1.93879 3.357504,-4.14729 4.968525,-6.48641 0.397917,-0.57692 0.794625,-1.15263 1.196171,-1.72471 l 0.903478,-1.28568 c 1.831145,-2.60279 3.725184,-5.29387 5.500694,-7.98374 1.121183,-1.69932 2.422579,-3.20511 3.681642,-4.66132 0.351958,-0.40759 0.705124,-0.81519 1.052244,-1.22641 0.494675,-0.58418 0.965161,-1.1998 1.464674,-1.85171 0.974838,-1.27236 1.98233,-2.58706 3.240185,-3.76146 5.503112,-5.14027 17.150355,-5.41966 23.496475,-2.22786 2.14077,1.07644 5.31444,3.46999 7.7987,6.09818 1.84566,-1.18408 3.85822,-1.98838 6.23847,-2.73946 5.69663,-1.79728 9.61049,-2.90154 15.89976,-3.07812 5.34347,-0.1536 12.63176,2.31373 16.22874,7.31249 4.59843,6.38966 4.33839,14.96726 3.30913,21.03761 -0.61925,3.65987 -1.58683,6.47674 -2.70802,9.03357 3.32485,0.85147 5.54545,2.15529 7.59793,3.93201 1.19133,-2.16254 2.52175,-4.16906 3.81952,-6.12962 1.14537,-1.72955 2.33066,-3.51716 3.38169,-5.3604 0.89139,-1.56506 1.81301,-3.13133 2.77212,-4.74961 -2.59553,-2.83501 -4.95764,-6.12478 -6.51907,-9.79433 -4.00699,-9.41455 -5.46078,-19.73138 -4.09529,-29.0528 0.72811,-4.9649 1.65336,-10.14025 3.49781,-14.35406 3.10109,-7.08873 6.16469,-10.9651 9.36134,-11.84923 5.39063,-1.49007 10.48373,0.32172 14.33954,5.10278 4.12914,5.11971 3.39257,15.57078 2.28953,24.10484 -0.48621,3.76873 -2.84831,15.41476 -4.51134,19.21615 -2.29921,5.25758 -5.44022,10.65426 -8.55946,15.91306 2.76365,2.61852 6.01835,5.09431 9.59719,7.25685 3.97796,2.40202 14.81123,2.30647 20.82474,1.17924 5.35798,-1.00386 15.99048,-4.26219 19.83056,-5.77645 0.66038,-0.26004 1.29414,-0.51887 1.9146,-0.77286 3.69616,-1.50821 7.18549,-2.93176 12.78536,-3.29098 8.11679,-0.52007 11.4622,2.25809 14.4109,4.7097 0.20078,0.16691 0.40276,0.33381 0.60595,0.50072 2.34396,1.92186 8.85336,5.08222 11.59524,4.35895 2.63303,-0.69545 5.28904,-2.95354 7.86038,-5.13785 4.07956,-3.46757 8.297,-7.05487 13.38163,-5.3737 l -1.44895,4.39161 c -2.44435,-0.80672 -5.00602,1.16472 -8.93923,4.5065 -2.962,2.51934 -6.02561,5.12213 -9.67217,6.08608 -5.35072,1.41388 -13.79649,-3.68527 -15.70867,-5.25517 -0.21166,-0.17416 -0.42211,-0.34712 -0.63013,-0.52007 -2.72616,-2.26535 -4.87782,-4.05296 -11.16104,-3.65262 -4.84637,0.31083 -7.7092,1.47919 -11.33279,2.95717 -0.63618,0.26124 -1.28809,0.52733 -1.9666,0.79341 -4.09166,1.61344 -14.98177,4.9528 -20.67356,6.02077 -5.05682,0.94702 -18.13609,1.81784 -24.06856,-1.76704 -2.17585,-1.3147 -5.88894,-3.76026 -9.62138,-7.14195 -0.73657,1.24817 -1.44895,2.46853 -2.14198,3.68164 -1.12723,1.97749 -2.35485,3.83162 -3.54255,5.62406 -1.54087,2.32582 -3.01281,4.54642 -4.23559,6.9569 1.44896,1.56022 2.7951,3.23535 3.77961,5.06045 1.89888,3.51836 2.59917,4.93828 3.45548,8.91504 1.44169,6.69928 0.64465,16.2409 -1.89404,22.6886 -2.42984,6.1719 -6.54326,9.6625 -11.23119,9.6625 l 0,0 z m 3.66471,-41.86842 c -0.38824,0.67367 -0.78737,1.32316 -1.18166,1.96418 -0.45355,0.73778 -0.92283,1.50096 -1.35824,2.27382 -0.92283,1.634 -1.82872,3.10109 -2.70559,4.52102 -1.29051,2.09118 -2.51088,4.06262 -3.46636,6.09817 -1.23608,2.63182 -4.52223,9.62259 -2.68383,14.38183 1.65698,4.2888 4.3783,7.4686 6.77427,7.9136 4.55852,0.8455 7.18792,-4.8693 7.88699,-6.6412 2.2073,-5.6023 2.92814,-14.20891 1.67755,-20.02043 -0.73053,-3.39621 -1.22641,-4.39766 -3.00313,-7.69106 -0.52491,-0.97121 -1.19738,-1.90734 -1.94,-2.79993 l 0,0 z m -15.78244,-8.03334 c -1.16352,0.0605 -2.24237,0.32293 -3.70221,0.83212 -1.93637,0.67489 -3.64052,1.39815 -6.46464,4.01425 l -0.0919,0.0834 c -1.61465,1.48403 -3.32606,3.56675 -2.3101,5.07133 0.15602,0.2298 0.45113,0.55031 1.20464,0.66521 1.47072,0.22618 3.53892,-0.49104 4.54762,-1.29897 3.42524,-2.74067 4.95401,-5.5394 6.22638,-8.17122 0.19836,-0.40517 0.39429,-0.8043 0.59023,-1.19617 l 0,0 z m -32.78041,-28.45411 c -0.36889,0.43783 -0.7402,0.91557 -1.11635,1.43927 -2.72495,3.78808 -3.14342,4.36984 -4.66494,8.4373 -1.21432,3.24865 -1.64973,5.35677 -1.79245,8.67436 -0.0992,2.29437 0.15482,6.4078 0.87324,7.83982 0.63377,1.2639 1.92307,1.8263 2.30647,1.8263 1.28084,0 2.93298,-0.46081 4.36016,-4.05295 0.94702,-2.38145 2.05248,-5.53818 2.20488,-8.82675 0.1923,-4.12189 -0.26851,-10.54662 -2.17101,-15.33735 l 0,0 z m 63.26039,-48.53746 c -0.7922,0 -1.61102,0.11732 -2.45886,0.35196 -0.43783,0.12095 -2.8084,1.13691 -6.35579,9.24523 -1.62554,3.71309 -2.47943,8.52438 -3.15794,13.17118 -1.24334,8.49173 0.0956,17.92927 3.77356,26.57218 1.03773,2.43951 2.66327,4.95159 4.75324,7.40803 2.82412,-4.77863 5.60471,-9.64193 7.63542,-14.28511 1.34977,-3.08658 3.67801,-14.21254 4.1618,-17.95587 1.4042,-10.86109 0.96637,-17.79501 -1.3026,-20.60825 -2.10449,-2.60884 -4.42789,-3.89935 -7.04883,-3.89935 l 0,0 z"
         id="Kabel"
         inkscape:connector-curvature="0" />
      <polygon
         style="fill:#ffffff;stroke:none"
         transform="matrix(1.2094753,0,0,1.2094753,16.399408,881.76066)"
         points="7.575,67.136 7.984,66.122 19.138,66.9 19.029,67.169 20.1,67.603 22.244,62.295 21.173,61.862 21.066,62.126 21.06,62.142 12.5,54.945 12.91,53.932 8.622,52.199 7.779,54.285 4.559,52.984 4.06,54.22 7.28,55.521 4.808,61.638 1.588,60.337 1.089,61.572 4.309,62.874 3.287,65.403 "
         id="Stecker" />
    </g>
    <text
       xml:space="preserve"
       style="font-size:14.30550766px;font-style:normal;font-variant:normal;font-weight:bold;font-stretch:normal;line-height:125%;letter-spacing:2.68936229px;word-spacing:0px;fill:#ffffff;fill-opacity:1;stroke:none;font-family:Miso;-inkscape-font-specification:Miso Bold"
       x="16.972654"
       y="1026.4135"
       id="text2999"
       sodipodi:linespacing="125%"><tspan
         sodipodi:role="line"
         id="tspan3001"
         x="16.972654"
         y="1026.4135">Digitalkultur im Rhein-Neckar-Dreieck</tspan></text>
  </g>
</svg>
