<?xml version="1.0" encoding="UTF-8" standalone="no"?>
<!-- Generator: Adobe Illustrator 14.0.0, SVG Export Plug-In . SVG Version: 6.00 Build 43363)  -->

<svg
   xmlns:dc="http://purl.org/dc/elements/1.1/"
   xmlns:cc="http://creativecommons.org/ns#"
   xmlns:rdf="http://www.w3.org/1999/02/22-rdf-syntax-ns#"
   xmlns:svg="http://www.w3.org/2000/svg"
   xmlns="http://www.w3.org/2000/svg"
   xmlns:xlink="http://www.w3.org/1999/xlink"
   xmlns:sodipodi="http://sodipodi.sourceforge.net/DTD/sodipodi-0.dtd"
   xmlns:inkscape="http://www.inkscape.org/namespaces/inkscape"
   version="1.1"
   id="Ebene_1"
   x="0px"
   y="0px"
   width="269.29132"
   height="191.33858"
   viewBox="0 0 269.29132 191.33857"
   enable-background="new 0 0 226.77 113.39"
   xml:space="preserve"
   inkscape:version="0.48.1 "
   sodipodi:docname="aufkleber-oval.svg"
   inkscape:export-filename="C:\Users\Inte\Documents\TeamDrive Spaces\Propaganda\Aufkleber (oval)\aufkleber-oval.png"
   inkscape:export-xdpi="600.19263"
   inkscape:export-ydpi="600.19263"><metadata
   id="metadata10"><rdf:RDF><cc:Work
       rdf:about=""><dc:format>image/svg+xml</dc:format><dc:type
         rdf:resource="http://purl.org/dc/dcmitype/StillImage" /><dc:title></dc:title></cc:Work></rdf:RDF></metadata><defs
   id="defs8">
</defs><sodipodi:namedview
   pagecolor="#ffffff"
   bordercolor="#666666"
   borderopacity="1"
   objecttolerance="10"
   gridtolerance="10"
   guidetolerance="10"
   inkscape:pageopacity="0"
   inkscape:pageshadow="2"
   inkscape:window-width="1280"
   inkscape:window-height="698"
   id="namedview6"
   showgrid="false"
   inkscape:zoom="2.8284271"
   inkscape:cx="182.86786"
   inkscape:cy="81.483744"
   inkscape:window-x="-8"
   inkscape:window-y="-8"
   inkscape:window-maximized="1"
   inkscape:current-layer="Ebene_1"
   units="cm"
   width="7.6cm"
   showguides="true"
   inkscape:guide-bbox="true"><sodipodi:guide
     orientation="0,1"
     position="147.78532,55.861436"
     id="guide4428" /></sodipodi:namedview>




<path
   style="fill:none;fill-opacity:1;stroke:none"
   d="m 134.64566,24.803143 c -60.664348,-9e-6 -109.842526,31.709432 -109.842519,70.825006 -3e-6,39.115571 49.178172,70.825001 109.842519,70.825001 60.66435,0 109.84252,-31.70944 109.84252,-70.825001 0,-39.115569 -49.17816,-70.825005 -109.84252,-70.825006 z"
   id="path3397-1"
   inkscape:connector-curvature="0" /><g
   id="g3639"
   transform="translate(0.70710678,-0.35355339)"><g
     transform="matrix(0.97386322,0,0,0.97386322,22.328389,34.664072)"
     id="text2987"
     style="font-size:24.52980042px;font-style:normal;font-weight:normal;line-height:125%;letter-spacing:0px;word-spacing:0px;fill:#000000;fill-opacity:1;stroke:none;font-family:Sans"><path
       inkscape:connector-curvature="0"
       id="path2991"
       style="font-size:19.62389946px;font-variant:normal;font-weight:bold;font-stretch:normal;font-family:Miso"
       d="m 139.61448,75.809034 0,-1.098922 c -0.0233,-0.935791 -0.34465,-1.713376 -0.96401,-2.332757 -0.61938,-0.619358 -1.39696,-0.940694 -2.33276,-0.96401 l -2.35483,0 c -0.27105,0.0061 -0.49427,0.0969 -0.66966,0.272278 -0.17538,0.175398 -0.26614,0.398616 -0.27227,0.669655 l 0,11.3032 c 0.006,0.271051 0.0969,0.49427 0.27227,0.669656 0.17539,0.175385 0.39861,0.266144 0.66966,0.272277 0.27105,-0.0061 0.49427,-0.09689 0.66966,-0.272277 0.17538,-0.175386 0.26614,-0.398605 0.27227,-0.669656 l 0,-4.552678 1.05968,0 1.82499,4.886279 c 0.11447,0.248566 0.28291,0.423543 0.50531,0.524932 0.2224,0.101388 0.45951,0.109565 0.71136,0.02453 0.25101,-0.0973 0.43089,-0.260831 0.53965,-0.490591 0.10874,-0.229759 0.11201,-0.471783 0.01,-0.726073 l -1.70726,-4.591925 c 0.54578,-0.282493 0.97505,-0.679053 1.2878,-1.189682 0.31275,-0.510615 0.47219,-1.088693 0.47833,-1.734236 z m -4.70967,1.4129 0,-3.924722 1.4129,0 c 0.40228,0.0098 0.73588,0.147188 1.00081,0.412095 0.26491,0.264929 0.40228,0.59853 0.41209,1.000805 l 0,1.098922 c -0.01,0.402292 -0.14718,0.735893 -0.41209,1.000804 -0.26493,0.264926 -0.59853,0.402291 -1.00081,0.412096 z" /><path
       inkscape:connector-curvature="0"
       id="path2993"
       style="font-size:19.62389946px;font-variant:normal;font-weight:bold;font-stretch:normal;font-family:Miso"
       d="m 144.38343,78.772199 -1.0793,0 c -0.80539,0.02045 -1.47586,0.298447 -2.01142,0.834003 -0.53556,0.535565 -0.81356,1.206038 -0.834,2.011421 0.0204,0.805387 0.29844,1.47586 0.834,2.011419 0.53556,0.535561 1.20603,0.813562 2.01142,0.834004 l 1.96236,0 c 0.25142,-0.0061 0.45992,-0.09199 0.6255,-0.25756 0.16557,-0.165574 0.25143,-0.374075 0.25756,-0.625502 l 0,-5.847836 c -0.005,-0.586249 -0.16149,-1.106274 -0.46851,-1.560078 -0.30703,-0.453787 -0.73303,-0.7972 -1.27799,-1.030239 -0.53147,-0.222392 -1.06785,-0.277992 -1.60913,-0.166801 -0.54129,0.11121 -1.0188,0.369587 -1.43253,0.775133 -0.17988,0.179891 -0.27146,0.389209 -0.27473,0.627956 0.003,0.238761 0.0949,0.44808 0.27473,0.627955 0.17334,0.173349 0.37612,0.258384 0.60833,0.255107 0.12674,4.16e-4 0.24121,-0.02003 0.34342,-0.06132 0.1022,-0.04128 0.19705,-0.105879 0.28454,-0.193783 0.15167,-0.156981 0.3291,-0.255099 0.53229,-0.294354 0.20318,-0.03924 0.40514,-0.01962 0.60588,0.05887 0.19869,0.083 0.35567,0.21137 0.47097,0.385114 0.11528,0.173757 0.17415,0.365905 0.17661,0.576443 z m -1.0793,1.766125 1.0793,0 0,2.158597 -1.0793,0 c -0.31112,-0.0069 -0.56704,-0.11079 -0.76777,-0.311525 -0.20074,-0.200731 -0.30458,-0.456655 -0.31153,-0.767773 0.007,-0.311114 0.11079,-0.567038 0.31153,-0.767774 0.20073,-0.20073 0.45665,-0.304572 0.76777,-0.311525 z" /><path
       inkscape:connector-curvature="0"
       id="path2995"
       style="font-size:19.62389946px;font-variant:normal;font-weight:bold;font-stretch:normal;font-family:Miso"
       d="m 150.8311,84.463046 1.96236,0 c 0.25142,-0.0061 0.45992,-0.09199 0.6255,-0.25756 0.16557,-0.165574 0.25142,-0.374075 0.25756,-0.625502 l 0,-7.77095 c -0.006,-0.251419 -0.092,-0.45992 -0.25756,-0.625503 -0.16558,-0.165565 -0.37408,-0.251418 -0.6255,-0.25756 -0.25143,0.0061 -0.45993,0.09199 -0.6255,0.25756 -0.16558,0.165583 -0.25143,0.374084 -0.25756,0.625503 l 0,6.887887 -1.0793,0 c -0.31112,-0.0069 -0.56704,-0.11079 -0.76777,-0.311525 -0.20074,-0.200731 -0.30458,-0.456655 -0.31153,-0.767773 l 0,-5.808589 c -0.006,-0.251419 -0.092,-0.45992 -0.25756,-0.625503 -0.16558,-0.165565 -0.37408,-0.251418 -0.6255,-0.25756 -0.25143,0.0061 -0.45993,0.09199 -0.6255,0.25756 -0.16558,0.165583 -0.25143,0.374084 -0.25756,0.625503 l 0,5.808589 c 0.0204,0.805387 0.29844,1.47586 0.834,2.011419 0.53556,0.535561 1.20603,0.813562 2.01142,0.834004 z" /><path
       inkscape:connector-curvature="0"
       id="path2997"
       style="font-size:19.62389946px;font-variant:normal;font-weight:bold;font-stretch:normal;font-family:Miso"
       d="m 157.61269,76.770591 2.1586,0 0,6.887887 c 0.006,0.251428 0.092,0.459928 0.25756,0.625502 0.16556,0.165574 0.37407,0.251428 0.6255,0.257561 0.24283,-0.0061 0.44888,-0.09199 0.61814,-0.257561 0.16925,-0.165574 0.25756,-0.374075 0.26492,-0.625502 l 0,-6.887887 1.0793,0 c 0.31111,0.007 0.56703,0.110799 0.76777,0.311525 0.20073,0.20074 0.30457,0.456664 0.31153,0.767773 l 0,5.808589 c 0.006,0.251428 0.092,0.459928 0.25756,0.625502 0.16556,0.165574 0.37406,0.251428 0.6255,0.257561 0.24283,-0.0061 0.44888,-0.09199 0.61814,-0.257561 0.16925,-0.165574 0.25755,-0.374075 0.26492,-0.625502 l 0,-5.808589 c -0.0217,-0.805378 -0.30213,-1.475851 -0.84136,-2.01142 -0.53925,-0.535552 -1.20727,-0.813553 -2.00406,-0.834003 l -5.88708,0 c -0.25143,0.0061 -0.45993,0.092 -0.62551,0.25756 -0.16557,0.165583 -0.25142,0.374083 -0.25756,0.625502 l 0,7.77095 c 0.006,0.251428 0.092,0.459928 0.25756,0.625502 0.16558,0.165574 0.37408,0.251428 0.62551,0.257561 0.24284,-0.0061 0.44888,-0.09199 0.61814,-0.257561 0.16925,-0.165574 0.25756,-0.374075 0.26492,-0.625502 z" /><path
       inkscape:connector-curvature="0"
       id="path2999"
       style="font-size:19.62389946px;font-variant:normal;font-weight:bold;font-stretch:normal;font-family:Miso"
       d="m 166.85157,72.355278 c 0.006,0.271063 0.0969,0.494281 0.27228,0.669656 0.17539,0.175397 0.39861,0.266156 0.66966,0.272278 l 3.29676,0 c -0.22199,0.555194 -0.55805,1.363032 -1.00816,2.423515 -0.45012,1.0605 -0.91863,2.162692 -1.40554,3.306579 -0.55273,1.295162 -1.1349,2.688437 -1.7465,4.179829 -0.029,0.04988 -0.0495,0.107113 -0.0613,0.171707 -0.0119,0.06459 -0.0176,0.131642 -0.0172,0.201142 0.003,0.176613 0.0556,0.353225 0.15699,0.529837 0.19297,0.27473 0.45462,0.412096 0.78495,0.412096 l 4.70966,0 c 0.27105,-0.0061 0.49427,-0.09689 0.66966,-0.272278 0.17538,-0.175385 0.26614,-0.398604 0.27228,-0.669655 -0.006,-0.271051 -0.0969,-0.494269 -0.27228,-0.669656 -0.17539,-0.175385 -0.39861,-0.266144 -0.66966,-0.272278 l -3.29676,0 c 0.22975,-0.547005 0.56499,-1.351573 1.00571,-2.413704 0.44071,-1.062123 0.9035,-2.161044 1.38837,-3.296766 0.52983,-1.291879 1.11854,-2.691695 1.76612,-4.199453 0.029,-0.04986 0.0495,-0.107101 0.0613,-0.171707 0.0118,-0.06458 0.0176,-0.131629 0.0172,-0.201142 -0.003,-0.1766 -0.0556,-0.353212 -0.15699,-0.529837 -0.19297,-0.274718 -0.45462,-0.412083 -0.78495,-0.412096 l -4.70966,0 c -0.27105,0.0061 -0.49427,0.0969 -0.66966,0.272278 -0.17538,0.175398 -0.26614,0.398616 -0.27228,0.669655 z" /><path
       inkscape:connector-curvature="0"
       id="path3001"
       style="font-size:19.62389946px;font-variant:normal;font-weight:bold;font-stretch:normal;font-family:Miso"
       d="m 176.54113,84.325681 c 0.54864,0.2224 1.09483,0.278 1.63858,0.1668 0.54373,-0.111201 1.03105,-0.369578 1.46195,-0.775132 0.17334,-0.179883 0.25838,-0.389201 0.25511,-0.627956 0.003,-0.238752 -0.0818,-0.44807 -0.25511,-0.627955 -0.17661,-0.179882 -0.39247,-0.271458 -0.64757,-0.274731 -0.23222,0.0033 -0.435,0.09485 -0.60834,0.274731 -0.16067,0.15699 -0.34464,0.255108 -0.55191,0.294354 -0.20728,0.03925 -0.41578,0.01963 -0.6255,-0.05887 -0.2081,-0.09076 -0.37081,-0.223217 -0.48814,-0.397378 -0.11734,-0.174158 -0.17702,-0.3753 -0.17907,-0.603426 l 0,-1.079299 3.04166,0 c 0.25143,-0.0061 0.45993,-0.09198 0.62551,-0.25756 0.16556,-0.16557 0.25142,-0.374071 0.25756,-0.625502 l 0,-1.962361 c -0.0204,-0.805379 -0.29845,-1.475851 -0.83401,-2.01142 -0.53556,-0.535553 -1.20604,-0.813554 -2.01142,-0.834004 -0.80539,0.02045 -1.47586,0.298452 -2.01142,0.834004 -0.53556,0.535568 -0.81356,1.206041 -0.834,2.01142 l 0,3.924722 c 0.005,0.596478 0.16189,1.125497 0.47097,1.58706 0.30907,0.461564 0.74079,0.809065 1.29515,1.042504 z m 1.0793,-7.633585 c 0.31112,0.007 0.56704,0.1108 0.76778,0.311525 0.20073,0.20074 0.30457,0.456665 0.31152,0.767774 l 0,1.079298 -2.1586,0 0,-1.079298 c 0.007,-0.311109 0.11079,-0.567034 0.31153,-0.767774 0.20073,-0.200726 0.45665,-0.304567 0.76777,-0.311525 z" /><path
       inkscape:connector-curvature="0"
       id="path3003"
       style="font-size:19.62389946px;font-variant:normal;font-weight:bold;font-stretch:normal;font-family:Miso"
       d="m 183.09919,73.944791 c 0.31112,-0.0069 0.56704,-0.110781 0.76778,-0.311525 0.20073,-0.200722 0.30457,-0.456647 0.31152,-0.767774 -0.007,-0.311104 -0.11079,-0.567028 -0.31152,-0.767774 -0.20074,-0.200721 -0.45666,-0.304562 -0.76778,-0.311524 -0.31111,0.007 -0.56704,0.110804 -0.76777,0.311525 -0.20073,0.200745 -0.30458,0.456669 -0.31152,0.767773 0.007,0.311127 0.11079,0.567052 0.31152,0.767774 0.20073,0.200743 0.45666,0.304585 0.76777,0.311525 z m 0.88307,9.713687 0,-7.849444 c -0.006,-0.251419 -0.092,-0.45992 -0.25756,-0.625503 -0.16558,-0.165565 -0.37408,-0.251418 -0.62551,-0.25756 -0.25142,0.0061 -0.45993,0.09199 -0.6255,0.25756 -0.16557,0.165583 -0.25143,0.374084 -0.25756,0.625503 l 0,7.849444 c 0.006,0.251428 0.092,0.459928 0.25756,0.625502 0.16557,0.165574 0.37408,0.251428 0.6255,0.257561 0.25143,-0.0061 0.45993,-0.09199 0.62551,-0.257561 0.16557,-0.165574 0.25142,-0.374075 0.25756,-0.625502 z" /><path
       inkscape:connector-curvature="0"
       id="path3005"
       style="font-size:19.62389946px;font-variant:normal;font-weight:bold;font-stretch:normal;font-family:Miso"
       d="m 186.1452,76.770591 0.68682,0 0,4.925526 c 0.0204,0.805387 0.29844,1.47586 0.83401,2.01142 0.53556,0.535561 1.20603,0.813562 2.01142,0.834004 0.25142,-0.0061 0.45992,-0.09199 0.6255,-0.257561 0.16557,-0.165574 0.25142,-0.374075 0.25756,-0.625502 -0.006,-0.251427 -0.092,-0.459927 -0.25756,-0.625503 -0.16558,-0.165573 -0.37408,-0.251426 -0.6255,-0.257559 -0.31112,-0.0069 -0.56705,-0.11079 -0.76778,-0.311525 -0.20073,-0.200731 -0.30457,-0.456656 -0.31152,-0.767774 l 0,-4.925526 1.0793,0 c 0.25142,-0.0061 0.45992,-0.09198 0.6255,-0.257561 0.16557,-0.165566 0.25142,-0.374067 0.25756,-0.625502 -0.006,-0.251419 -0.092,-0.459919 -0.25756,-0.625502 -0.16558,-0.165566 -0.37408,-0.251419 -0.6255,-0.25756 l -1.0793,0 0,-3.120154 c -0.006,-0.251415 -0.092,-0.459916 -0.25756,-0.625503 -0.16558,-0.165561 -0.37408,-0.251414 -0.6255,-0.25756 -0.25143,0.0061 -0.45993,0.092 -0.62551,0.25756 -0.16557,0.165587 -0.25142,0.374088 -0.25756,0.625503 l 0,3.120154 -0.68682,0 c -0.25143,0.0061 -0.45993,0.092 -0.6255,0.25756 -0.16558,0.165583 -0.25143,0.374083 -0.25756,0.625502 0.006,0.251436 0.092,0.459936 0.25756,0.625503 0.16557,0.165581 0.37407,0.251435 0.6255,0.25756 z" /><path
       inkscape:connector-curvature="0"
       id="path3007"
       style="font-size:19.62389946px;font-variant:normal;font-weight:bold;font-stretch:normal;font-family:Miso"
       d="m 192.83447,84.521917 3.92472,0 c 0.27105,-0.0061 0.49426,-0.09689 0.66966,-0.272278 0.17538,-0.175385 0.26614,-0.398604 0.27227,-0.669655 -0.006,-0.271051 -0.0969,-0.494269 -0.27227,-0.669656 -0.17539,-0.175385 -0.39861,-0.266144 -0.66966,-0.272278 l -2.98279,0 0,-10.361266 c -0.006,-0.271039 -0.0969,-0.494257 -0.27227,-0.669656 -0.17539,-0.175373 -0.39861,-0.266132 -0.66966,-0.272277 -0.27105,0.0061 -0.49427,0.0969 -0.66966,0.272277 -0.17538,0.175399 -0.26614,0.398617 -0.27227,0.669656 l 0,11.3032 c 0.006,0.271051 0.0969,0.494269 0.27227,0.669655 0.17539,0.175386 0.39861,0.266145 0.66966,0.272278 z" /><path
       inkscape:connector-curvature="0"
       id="path3009"
       style="font-size:19.62389946px;font-variant:normal;font-weight:bold;font-stretch:normal;font-family:Miso"
       d="m 201.91354,78.772199 -1.0793,0 c -0.80538,0.02045 -1.47586,0.298447 -2.01142,0.834003 -0.53556,0.535565 -0.81356,1.206038 -0.834,2.011421 0.0204,0.805387 0.29844,1.47586 0.834,2.011419 0.53556,0.535561 1.20603,0.813562 2.01142,0.834004 l 1.96236,0 c 0.25143,-0.0061 0.45993,-0.09199 0.62551,-0.25756 0.16557,-0.165574 0.25142,-0.374075 0.25756,-0.625502 l 0,-5.847836 c -0.005,-0.586249 -0.16149,-1.106274 -0.46852,-1.560078 -0.30703,-0.453787 -0.73303,-0.7972 -1.27798,-1.030239 -0.53148,-0.222392 -1.06786,-0.277992 -1.60914,-0.166801 -0.54129,0.11121 -1.01879,0.369587 -1.43252,0.775133 -0.17989,0.179891 -0.27147,0.389209 -0.27473,0.627956 0.003,0.238761 0.0948,0.44808 0.27473,0.627955 0.17334,0.173349 0.37611,0.258384 0.60833,0.255107 0.12673,4.16e-4 0.2412,-0.02003 0.34341,-0.06132 0.10221,-0.04128 0.19705,-0.105879 0.28454,-0.193783 0.15168,-0.156981 0.3291,-0.255099 0.53229,-0.294354 0.20319,-0.03924 0.40515,-0.01962 0.60588,0.05887 0.19869,0.083 0.35568,0.21137 0.47097,0.385114 0.11528,0.173757 0.17415,0.365905 0.17661,0.576443 z m -1.0793,1.766125 1.0793,0 0,2.158597 -1.0793,0 c -0.31112,-0.0069 -0.56704,-0.11079 -0.76777,-0.311525 -0.20074,-0.200731 -0.30458,-0.456655 -0.31153,-0.767773 0.007,-0.311114 0.11079,-0.567038 0.31153,-0.767774 0.20073,-0.20073 0.45665,-0.304572 0.76777,-0.311525 z" /><path
       inkscape:connector-curvature="0"
       id="path3011"
       style="font-size:19.62389946px;font-variant:normal;font-weight:bold;font-stretch:normal;font-family:Miso"
       d="m 206.55584,84.463046 1.96237,0 c 0.80538,-0.02044 1.47585,-0.298442 2.01141,-0.834004 0.53556,-0.53556 0.81356,-1.206032 0.83401,-2.011419 l 0,-3.767734 c -0.0205,-0.805378 -0.29845,-1.475851 -0.83401,-2.01142 -0.53556,-0.535552 -1.20603,-0.813553 -2.01141,-0.834003 l -1.0793,0 0,-3.120154 c -0.006,-0.251415 -0.092,-0.459916 -0.25756,-0.625503 -0.16558,-0.165561 -0.37408,-0.251414 -0.62551,-0.25756 -0.25143,0.0061 -0.45993,0.092 -0.6255,0.25756 -0.16557,0.165587 -0.25143,0.374088 -0.25756,0.625503 l 0,11.695672 c 0.006,0.251428 0.092,0.459928 0.25756,0.625502 0.16557,0.165574 0.37407,0.251427 0.6255,0.25756 z m 0.88307,-7.692455 1.0793,0 c 0.31111,0.007 0.56703,0.110799 0.76777,0.311525 0.20073,0.20074 0.30457,0.456664 0.31152,0.767773 l 0,3.767734 c -0.007,0.311118 -0.11079,0.567042 -0.31152,0.767773 -0.20074,0.200735 -0.45666,0.304576 -0.76777,0.311525 l -1.0793,0 z" /><path
       inkscape:connector-curvature="0"
       id="path3013"
       style="font-size:19.62389946px;font-variant:normal;font-weight:bold;font-stretch:normal;font-family:Miso"
       d="m 215.90996,84.541541 c 0.80539,-0.02044 1.47586,-0.298443 2.01142,-0.834004 0.53556,-0.53556 0.81356,-1.206033 0.83401,-2.01142 l 0,-3.924722 c -0.0205,-0.805379 -0.29845,-1.475851 -0.83401,-2.01142 -0.53556,-0.535553 -1.20603,-0.813554 -2.01142,-0.834004 -0.80538,0.02045 -1.47586,0.298452 -2.01142,0.834004 -0.53556,0.535568 -0.81356,1.206041 -0.834,2.01142 l 0,3.924722 c 0.0204,0.805387 0.29844,1.47586 0.834,2.01142 0.53556,0.535561 1.20604,0.813562 2.01142,0.834004 z m 0,-7.849445 c 0.31112,0.007 0.56704,0.1108 0.76778,0.311525 0.20073,0.20074 0.30457,0.456665 0.31152,0.767774 l 0,3.924722 c -0.007,0.311118 -0.11079,0.567042 -0.31152,0.767774 -0.20074,0.200734 -0.45666,0.304576 -0.76778,0.311525 -0.31111,-0.0069 -0.56704,-0.11079 -0.76777,-0.311525 -0.20074,-0.200731 -0.30458,-0.456656 -0.31152,-0.767774 l 0,-3.924722 c 0.007,-0.311109 0.11079,-0.567034 0.31152,-0.767774 0.20073,-0.200726 0.45666,-0.304567 0.76777,-0.311525 z" /><path
       inkscape:connector-curvature="0"
       id="path3015"
       style="font-size:19.62389946px;font-variant:normal;font-weight:bold;font-stretch:normal;font-family:Miso"
       d="m 221.58036,84.541541 c 0.25143,-0.0061 0.45993,-0.09199 0.62551,-0.257561 0.16557,-0.165574 0.25142,-0.374075 0.25756,-0.625502 l 0,-6.887887 1.0793,0 c 0.1766,-0.0033 0.35322,0.04252 0.52983,0.137365 0.23221,0.12429 0.45952,0.155361 0.68192,0.09321 0.2224,-0.06213 0.40065,-0.197864 0.53475,-0.40719 0.11732,-0.232205 0.14758,-0.459512 0.0908,-0.681921 -0.0568,-0.222392 -0.19829,-0.400639 -0.42436,-0.534743 -0.45135,-0.251827 -0.92232,-0.37611 -1.4129,-0.372848 l -1.96237,0 c -0.25142,0.0061 -0.45993,0.092 -0.6255,0.25756 -0.16557,0.165583 -0.25143,0.374083 -0.25756,0.625502 l 0,7.77095 c 0.006,0.251428 0.092,0.459928 0.25756,0.625502 0.16558,0.165574 0.37408,0.251428 0.6255,0.257561 z" /></g><g
     id="g3635"><path
       inkscape:connector-curvature="0"
       id="Kabel"
       d="m 137.5666,143.6637 c -0.4772,0 -0.96023,-0.0448 -1.45106,-0.13634 -3.29847,-0.61353 -6.38172,-3.86234 -8.24765,-8.69173 -2.0529,-5.31729 1.08391,-11.99215 2.26521,-14.50667 0.85992,-1.82989 1.89611,-3.50785 2.99268,-5.2832 0.68755,-1.11216 1.3975,-2.26229 2.10452,-3.51273 0.38565,-0.68268 0.78104,-1.3264 1.16279,-1.94967 0.51225,-0.8346 1.00503,-1.63609 1.43548,-2.4668 -1.44327,-1.3936 -2.91672,-2.53399 -6.06425,-3.20596 -0.0175,0.0351 -0.036,0.0701 -0.0536,0.10518 -0.33598,0.6632 -0.68365,1.3488 -1.02256,2.05096 -1.15695,2.39473 -2.67423,5.17413 -6.0399,7.86686 -1.46858,1.17546 -4.18956,2.17854 -6.54825,1.81918 -1.49781,-0.22788 -2.70637,-0.9651 -3.4952,-2.13179 -1.04106,-1.53967 -2.11036,-4.74466 2.42589,-8.91084 l 0.0623,-0.0575 c 2.79401,-2.58756 4.67357,-3.37736 6.51028,-4.01719 2.27981,-0.794671 3.83994,-1.025476 6.02724,-0.818043 0.9836,-2.101597 1.80067,-4.277208 2.30221,-7.241647 0.70995,-4.187612 0.93491,-10.041504 -2.0159,-14.142442 -2.11718,-2.942031 -6.69726,-4.433016 -9.94022,-4.340499 -4.67357,0.131472 -7.52407,0.963151 -11.78764,2.308056 -1.51144,0.477184 -2.74824,0.954376 -3.86137,1.626342 0.15582,0.27463 0.29021,0.545364 0.40221,0.811228 1.86982,4.453477 2.33824,10.283996 2.15418,14.257358 -0.14802,3.200114 -1.16571,6.121704 -2.03537,8.309977 -1.48027,3.7221 -3.82534,5.61042 -6.971888,5.61042 -1.699391,0 -4.02595,-1.21051 -5.185821,-3.52441 -1.317637,-2.62358 -1.097544,-8.087931 -1.095597,-8.142468 0.130498,-3.041375 0.568737,-5.168292 1.676019,-8.128836 1.356591,-3.626667 1.846445,-4.361933 4.220723,-7.66333 0.571658,-0.794672 1.136499,-1.489037 1.706209,-2.100623 -1.621483,-1.668218 -3.741583,-3.296517 -5.105965,-3.983091 -3.930512,-1.976942 -11.488665,-1.816254 -14.705335,1.188114 -0.785908,0.734292 -1.470533,1.627325 -2.194114,2.572936 -0.41097,0.536599 -0.835574,1.091701 -1.291342,1.630247 -0.288264,0.341826 -0.581397,0.679757 -0.873556,1.018661 -0.978732,1.132603 -1.903902,2.201905 -2.674228,3.369567 -1.460795,2.211644 -3.001447,4.401862 -4.491457,6.519041 l -0.726502,1.033268 c -0.31748,0.451873 -0.63009,0.906667 -0.943674,1.360487 -1.320558,1.918511 -2.686888,3.901296 -4.363881,5.67178 -1.311794,1.384833 -3.101754,2.397647 -5.174135,2.930357 -3.732818,0.95828 -7.699363,0.38759 -10.736842,-0.21717 -1.51241,-0.3019 -3.11831,-0.693395 -5.052402,-1.232915 l 1.001131,-3.586738 c 1.840601,0.512252 3.358854,0.883294 4.777773,1.165714 2.815438,0.559971 6.09541,1.031321 9.084196,0.263917 1.393598,-0.358382 2.568077,-1.009896 3.397809,-1.885399 1.478324,-1.561103 2.703444,-3.339377 4.00063,-5.222829 0.320401,-0.464533 0.639828,-0.928092 0.963151,-1.388729 l 0.727475,-1.035216 c 1.474429,-2.095754 2.999499,-4.2626 4.42913,-6.428472 0.902772,-1.368277 1.950648,-2.580737 2.96444,-3.753268 0.283394,-0.328192 0.567762,-0.656374 0.847261,-0.987488 0.39831,-0.470376 0.777143,-0.966072 1.179348,-1.490985 0.784934,-1.024504 1.596162,-2.083093 2.60898,-3.028714 4.431078,-4.138919 13.80938,-4.363881 18.919241,-1.793856 1.723738,0.866738 4.279153,2.794013 6.279473,4.910218 1.48611,-0.953412 3.10662,-1.601031 5.02318,-2.2058 4.5869,-1.447161 7.73832,-2.336298 12.80241,-2.478482 4.30253,-0.123681 10.17103,1.863 13.0673,5.887977 3.70262,5.14491 3.49324,12.051548 2.66449,16.939367 -0.49862,2.94691 -1.27771,5.215038 -2.18048,7.273788 2.67715,0.6856 4.46516,1.73542 6.1178,3.16603 0.95926,-1.74127 2.03051,-3.35691 3.07546,-4.935543 0.92225,-1.392624 1.87664,-2.831994 2.72293,-4.316162 0.71773,-1.260179 1.45982,-2.521332 2.23209,-3.824361 -2.08991,-2.282735 -3.99186,-4.931643 -5.24912,-7.886344 -3.22641,-7.580541 -4.39699,-15.887595 -3.2975,-23.393159 0.58626,-3.99771 1.33127,-8.164871 2.81641,-11.55781 2.49698,-5.707808 4.96378,-8.829039 7.5377,-9.540933 4.34051,-1.1998 8.44145,0.259047 11.54612,4.108729 3.32477,4.122358 2.73169,12.53751 1.84353,19.409091 -0.3915,3.034557 -2.29345,12.411886 -3.63251,15.472729 -1.85132,4.233383 -4.38044,8.578761 -6.89203,12.813118 2.22527,2.108414 4.84594,4.101912 7.7276,5.843179 3.20304,1.934093 11.92593,1.857158 16.76798,0.949517 4.31421,-0.808306 12.87544,-3.431894 15.96746,-4.651171 0.53173,-0.20938 1.04203,-0.417787 1.54162,-0.622298 2.97613,-1.214408 5.78573,-2.360645 10.29471,-2.649882 6.5356,-0.418761 9.2293,1.818203 11.60358,3.792223 0.16166,0.134393 0.3243,0.268787 0.48791,0.40318 1.88735,1.547468 7.12868,4.092173 9.33643,3.509803 2.1201,-0.559972 4.2587,-2.378174 6.32913,-4.136971 3.28484,-2.792066 6.6807,-5.680544 10.77483,-4.326874 l -1.16669,3.536097 c -1.96818,-0.649567 -4.03082,0.93783 -7.19783,3.628614 -2.38499,2.028557 -4.85178,4.124311 -7.78798,4.900478 -4.30837,1.13845 -11.10886,-2.967359 -12.64854,-4.231434 -0.17042,-0.140236 -0.33987,-0.279498 -0.50738,-0.418761 -2.19509,-1.824046 -3.92759,-3.263416 -8.98681,-2.941067 -3.90227,0.250283 -6.2074,1.191035 -9.1251,2.381096 -0.51225,0.210354 -1.03716,0.424604 -1.5835,0.638854 -3.29458,1.299134 -12.06324,3.98797 -16.64624,4.847892 -4.07172,0.76253 -14.60308,1.46372 -19.37988,-1.422815 -1.75198,-1.058589 -4.74174,-3.027741 -7.74708,-5.750662 -0.59309,1.005026 -1.16669,1.987654 -1.72471,2.964439 -0.90764,1.592267 -1.89612,3.085199 -2.85245,4.528468 -1.2407,1.87274 -2.42589,3.66075 -3.41047,5.60166 1.16669,1.25628 2.2506,2.60508 3.04332,4.07464 1.52897,2.83297 2.09284,3.97628 2.78233,7.17835 1.16085,5.39423 0.51907,13.07703 -1.52507,18.2687 -1.95649,4.96962 -5.2686,7.78019 -9.04329,7.78019 l 0,0 z m 2.9508,-33.71222 c -0.31261,0.54244 -0.63398,1.0654 -0.95146,1.58155 -0.3652,0.59406 -0.74306,1.20857 -1.09365,1.83086 -0.74306,1.31569 -1.47248,2.49699 -2.17853,3.6403 -1.03911,1.68381 -2.02174,3.27121 -2.79109,4.91022 -0.99529,2.11913 -3.64128,7.74806 -2.16101,11.58021 1.3342,3.45332 3.52539,6.01361 5.45461,6.37199 3.67049,0.68073 5.78767,-3.92078 6.35056,-5.34749 1.7773,-4.51093 2.35773,-11.44094 1.35075,-16.12035 -0.58821,-2.73461 -0.9875,-3.54097 -2.4181,-6.1928 -0.42266,-0.78201 -0.96412,-1.53578 -1.56208,-2.25449 l 0,0 z m -12.70794,-6.4684 c -0.93685,0.0487 -1.80554,0.26002 -2.98099,0.67002 -1.55916,0.54341 -2.93133,1.12578 -5.2053,3.23225 l -0.074,0.0672 c -1.3001,1.19493 -2.67812,2.87193 -1.86007,4.08341 0.12562,0.18504 0.36325,0.44311 0.96996,0.53563 1.18422,0.18211 2.84953,-0.39539 3.66173,-1.04593 2.75798,-2.20678 3.98894,-4.4603 5.01345,-6.57942 0.15971,-0.32625 0.31748,-0.64762 0.47524,-0.96315 l 0,0 z M 101.41485,80.571972 c -0.29703,0.352538 -0.59601,0.737214 -0.89888,1.158897 -2.194112,3.05014 -2.531069,3.518568 -3.756189,6.79367 -0.977759,2.615796 -1.328349,4.31324 -1.443265,6.984547 -0.07986,1.847418 0.124654,5.159524 0.703129,6.312584 0.510304,1.01768 1.548443,1.47053 1.857157,1.47053 1.031321,0 2.361618,-0.37104 3.510778,-3.26342 0.76253,-1.917532 1.65264,-4.459315 1.77535,-7.107249 0.15485,-3.318926 -0.2162,-8.492087 -1.74808,-12.349559 l 0,0 z m 50.93694,-39.082093 c -0.63788,0 -1.29719,0.09446 -1.97986,0.283395 -0.35254,0.09739 -2.26132,0.915426 -5.11766,7.444205 -1.30887,2.98976 -1.99642,6.863788 -2.54275,10.605373 -1.00113,6.837493 0.0769,14.436548 3.03845,21.395765 0.83557,1.964282 2.14445,3.986996 3.82728,5.964912 2.27397,-3.847733 4.51288,-7.763637 6.148,-11.502289 1.08683,-2.485299 2.96152,-11.443866 3.35106,-14.457973 1.13066,-8.745294 0.77812,-14.328452 -1.04885,-16.593657 -1.69452,-2.100623 -3.56531,-3.139731 -5.67567,-3.139731 l 0,0 z" /><polygon
       id="Stecker"
       points="3.287,65.403 7.575,67.136 7.984,66.122 19.138,66.9 19.029,67.169 20.1,67.603 22.244,62.295 21.173,61.862 21.066,62.126 21.06,62.142 12.5,54.945 12.91,53.932 8.622,52.199 7.779,54.285 4.559,52.984 4.06,54.22 7.28,55.521 4.808,61.638 1.588,60.337 1.089,61.572 4.309,62.874 "
       transform="matrix(0.97386322,0,0,0.97386322,22.328389,34.664072)" /></g></g><text
   xml:space="preserve"
   style="font-size:14px;font-style:normal;font-variant:normal;font-weight:normal;font-stretch:normal;text-align:center;line-height:125%;letter-spacing:0px;word-spacing:0px;text-anchor:middle;fill:#000000;fill-opacity:1;stroke:none;font-family:Miso;-inkscape-font-specification:Miso"
   id="text3417"
   sodipodi:linespacing="125%"
   transform="translate(0,-0.35355339)"><textPath
     xlink:href="#path3397-1"
     startOffset="50%"
     id="textPath3585"
     style="font-size:14px;font-weight:bold;text-align:center;text-anchor:middle;-inkscape-font-specification:Miso Bold"> Digitalkultur im Rhein-Neckar-Dreieck</textPath></text>
</svg>